<svg xmlns="http://www.w3.org/2000/svg" x="0px" y="0px" width="24" height="24" viewBox="0 0 172 172" style=" fill:#000000;">
    <g fill="none" fill-rule="nonzero" stroke="none" stroke-width="1" stroke-linecap="butt" stroke-linejoin="miter" stroke-miterlimit="10" stroke-dasharray="" stroke-dashoffset="0" font-family="none" font-weight="none" font-size="none" text-anchor="none" style="mix-blend-mode: normal">
        <path d="M0,172v-172h172v172z" fill="none"></path>
        <g fill="#31424a">
            <path d="M129,64.5c0,23.75033 -43,78.83333 -43,78.83333c0,0 -43,-55.083 -43,-78.83333c0,-23.75033 19.24967,-43 43,-43c23.75033,0 43,19.24967 43,43z" opacity="1" fill="#FFF"></path>
            <path d="M86,82.41667c-9.89717,0 -17.91667,-8.0195 -17.91667,-17.91667c0,-9.89717 8.0195,-17.91667 17.91667,-17.91667c9.89717,0 17.91667,8.0195 17.91667,17.91667c0,9.89717 -8.0195,17.91667 -17.91667,17.91667z"></path>
            <path d="M86,14.405c-27.63467,0 -50.1165,22.48183 -50.1165,50.1165c0,32.12817 42.77067,84.33017 44.591,86.53033l5.5255,6.70083l5.5255,-6.70083c1.82033,-2.20733 44.591,-54.40217 44.591,-86.53033c0,-27.64183 -22.48183,-50.1165 -50.1165,-50.1165zM86,134.92683c-13.459,-17.6515 -35.78317,-50.99083 -35.78317,-70.40533c0,-19.72983 16.05333,-35.78317 35.78317,-35.78317c19.72983,0 35.78317,16.05333 35.78317,35.78317c0,19.38583 -22.32417,52.7395 -35.78317,70.40533z"></path>
        </g>
    </g>
</svg>