<svg xmlns="http://www.w3.org/2000/svg" width="30" height="38.004" viewBox="0 0 30 38.004">
  <g id="Group_4" data-name="Group 4" transform="translate(-197 -198)">
    <g id="Group_1" data-name="Group 1" transform="translate(-10 -2)">
      <g id="Group_2" data-name="Group 2">
        <g id="Ellipse_1" data-name="Ellipse 1" transform="translate(207 200)" fill="#fff" stroke="#31424a" stroke-width="3">
          <circle cx="15" cy="15" r="15" stroke="none"/>
          <circle cx="15" cy="15" r="13.5" fill="none"/>
        </g>
      </g>
      <g id="Path_4" data-name="Path 4" transform="translate(-25)" fill="#31424a">
        <path d="M 247.0241546630859 237.2363128662109 L 236.9098358154297 225.478515625 L 246.8246612548828 229.8072052001953 L 247.0250244140625 229.8946685791016 L 247.2252807617188 229.8069763183594 L 257.1074523925781 225.4797210693359 L 247.0241546630859 237.2363128662109 Z" stroke="none"/>
        <path d="M 238.7176361083984 226.8133544921875 L 247.0235900878906 236.4689483642578 L 255.3028564453125 226.8157653808594 L 247.4258422851563 230.2649993896484 L 247.0253143310547 230.4403839111328 L 246.6246032714844 230.2654266357422 L 238.7176361083984 226.8133544921875 M 235.10205078125 224.1436767578125 L 247.0247192382813 229.3489685058594 L 258.9120483398438 224.1436767578125 L 247.0247192382813 238.0036773681641 L 235.10205078125 224.1436767578125 Z" stroke="none" fill="#31424a"/>
      </g>
    </g>
    <g id="ic_activities" transform="translate(206 202)">
      <path id="ic_activities-2" data-name="ic_activities" d="M11,7l1.44,2.16a2.085,2.085,0,0,0,1.57.84H17V8H14L12.56,5.84a5.99,5.99,0,0,0-1.382-1.388L11.16,4.44,9.84,3.56a1.721,1.721,0,0,0-1.709-.035l.009,0L4,6v5H6V7L8,6,5,20H7l2.35-7.65L11,14v6h2V12L10.3,9.3,11,7Zm1-3a2,2,0,0,0,0-4h0a2,2,0,0,0,0,4Z" transform="translate(-4)" fill="#31424a"/>
    </g>
  </g>
</svg>
