<?xml version="1.0" standalone="no"?>
<!DOCTYPE svg PUBLIC "-//W3C//DTD SVG 1.1//EN" "http://www.w3.org/Graphics/SVG/1.1/DTD/svg11.dtd" >
<svg xmlns="http://www.w3.org/2000/svg">
<metadata>Generated by IcoMoon</metadata>
<defs>
<font id="icomoon" horiz-adv-x="1024">
<font-face units-per-em="1024" ascent="960" descent="-64" />
<missing-glyph horiz-adv-x="1024" />
<glyph unicode="&#x20;" horiz-adv-x="512" d="" />
<glyph unicode="&#xe900;" glyph-name="search" d="M997.154 121.404l-318.702 318.702c24.59 48.546 38.47 103.396 38.47 161.434-0.002 197.656-160.804 358.46-358.46 358.46s-358.462-160.804-358.462-358.46 160.806-358.462 358.462-358.462c58.038 0 112.89 13.88 161.434 38.47l318.702-318.702c35.794-35.798 93.728-35.794 129.52 0l29.034 29.034c35.798 35.798 35.796 93.73 0.002 129.524zM358.46 303.078c-164.572 0-298.462 133.888-298.462 298.462 0 164.572 133.89 298.462 298.462 298.462 164.57 0 298.46-133.89 298.46-298.462s-133.89-298.462-298.46-298.462z" />
<glyph unicode="&#xe901;" glyph-name="pin-check" horiz-adv-x="1310" d="M1305.7-3.956l-204.217 469.698c-6.482 14.908-21.19 24.56-37.453 24.56h-131.165c-3.58-10.39-7.369-20.861-11.447-31.47-6.452-16.792-13.432-33.535-20.81-50.217h136.64l168.708-388.011h-1100.705l168.698 388.011h136.619c-7.399 16.712-14.409 33.454-20.851 50.217-4.078 10.61-7.867 21.080-11.457 31.47h-131.095c-16.253 0-30.972-9.652-37.453-24.56l-204.217-469.698c-5.494-12.624-4.248-27.162 3.3-38.679 7.549-11.507 20.392-18.447 34.153-18.447h1225.299c13.771 0 26.604 6.94 34.152 18.447 7.549 11.517 8.795 26.056 3.301 38.679zM508.926 632.82c2.387-1.284 4.186-1.944 6.593-2.621 1.23 0.569 2.284-5.267 2.89-5.285-4.17 2.55-7.63 9.064-9.483 7.906zM655.617 960c-130.178 0-235.656-112.658-235.656-251.501 0-71.984 17.25-144.996 45.211-218.197 0.279-0.718 0.508-1.416 0.788-2.134 10.191-26.504 21.837-53.028 34.561-79.553 42.728-89.095 98.050-178.071 155.097-265.481 56.638 86.602 112.12 175.838 155.047 265.481 12.674 26.485 24.321 53.009 34.502 79.513 0.279 0.718 0.519 1.456 0.798 2.173 27.96 73.29 45.27 146.412 45.27 218.197 0 138.843-105.519 251.501-235.617 251.501zM799.934 692.078c-27.043-32.546-55.261-63.846-82.891-95.77-21.337-24.226-40.323-50.949-63.461-74.516-13.137-13.556-35.704-38.353-56.874-36.51-17.552 1.128-32.319 14.302-43.47 26.761-26.416 29.285-62.039 75.217-62.007 117.057 0.349 32.128 29.142 21.57 46.315 7.718 23.675-19.501 41.772-43.082 62.951-64.936 10.234 17.887 26.455 33.171 41.428 47.278 26.221 25.295 50.035 51.268 75.668 77.187 23.138 23.567 43.924 49.63 68.236 71.949 10.588 9.387 28.644 25.222 44.144 16.272 39.943-23.016-13.068-72.377-30.038-92.489z" />
<glyph unicode="&#xe902;" glyph-name="password" d="M771.794 530.278v169.935c0 143.246-116.541 259.788-259.788 259.788s-259.785-116.541-259.785-259.785v-169.935h-159.474v-594.278h838.504v594.275h-159.457zM280.691 700.215c0 127.544 103.771 231.317 231.317 231.317s231.317-103.771 231.317-231.317v-169.935h-462.635c0-0.002 0 169.935 0 169.935zM902.797-35.53h-781.58v537.337h781.565v-537.337h0.014z" />
<glyph unicode="&#xe903;" glyph-name="menu-4" d="M512 960c-282.752 0-512-229.248-512-512s229.248-512 512-512 512 229.248 512 512-229.248 512-512 512zM575.999 192c0-35.328-28.673-63.999-63.999-63.999s-63.999 28.673-63.999 63.999v320.001c0 35.328 28.673 63.999 63.999 63.999s63.999-28.673 63.999-63.999v-320.001zM512 638.976c-35.328 0-63.999 28.673-63.999 63.999s28.673 63.999 63.999 63.999 63.999-28.673 63.999-63.999-28.671-63.999-63.999-63.999z" />
<glyph unicode="&#xe904;" glyph-name="menu-3" horiz-adv-x="1269" d="M905.609 102.299v0 0zM905.609 102.299c13.575 0 13.404 20.258 0 20.939-14.671 0.745 10.743 55.532 13.634 61.503 12.991 26.836 31.895 48.42 60.087 53.579-7.831-25.305-2.232-58.962 9.369-79.535 3.852-6.832 14.211-6.763 18.080 0 11.055 19.321 25.216 43.466 47.585 51.866-1.335-20.846-9.514-41.171-10.56-62.286-0.46-9.301 11.652-13.627 17.873-7.402 16.172 16.18 34.924 19.811 55.052 16.396-11.316-20.423-13.402-44.585 5.521-63.508 26.751-26.751 58.697-1.498 78.957 19.272 42.855 43.93 54.11 136.42 15.417 185.031-5.261 6.609-15.255 2.071-17.498-4.62-7.961-23.737-10.929-51.442-36.523-59.245 10.612 51.097-8.058 101.384-33.332 146.548-4.378 7.823-16.959 6.271-19.135-2.501-8.043-32.429-21.654-55.582-51.775-65.349 5.997 27.987 11.978 52.155 10.57 83.504-1.423 31.659-8.954 64.555-22.368 93.227-7.868 16.816-52.779 92.080-71.793 46.007-0.545-1.32-0.515-2.665-0.287-3.989-0.018-1.741 0.443-3.59 1.652-5.475 24.423-38.087 36.827-69.323 4.383-109.157-17.835-21.897-46.784-34.71-70.81-48.454-41.331-23.643-63.061-55.823-76.146-101.267-16.187-56.218-5.701-165.085 72.046-165.085zM1196.598 67.474c-25.152 0-46.48-16.165-54.306-38.652-7.826 22.487-29.153 38.652-54.306 38.652s-46.48-16.165-54.307-38.652c-7.826 22.487-29.154 38.652-54.307 38.652s-46.48-16.165-54.307-38.652c-7.826 22.487-29.154 38.652-54.307 38.652-31.781 0-57.546-25.764-57.546-57.546s25.764-57.545 57.546-57.545c25.153 0 46.48 16.165 54.307 38.651 7.826-22.487 29.154-38.651 54.307-38.651s46.48 16.165 54.307 38.651c7.826-22.487 29.154-38.651 54.307-38.651s46.48 16.165 54.306 38.651c7.826-22.487 29.154-38.651 54.306-38.651 31.782 0 57.546 25.764 57.546 57.545s-25.763 57.546-57.546 57.546zM870.761-36.435c-25.605 0-46.364 20.758-46.364 46.364s20.758 46.364 46.364 46.364c25.606 0 46.364-20.758 46.364-46.364s-20.758-46.364-46.364-46.364zM979.373-36.435c-25.605 0-46.364 20.758-46.364 46.364s20.758 46.364 46.364 46.364c25.606 0 46.364-20.758 46.364-46.364s-20.758-46.364-46.364-46.364zM1087.986-36.435c-25.606 0-46.364 20.758-46.364 46.364s20.758 46.364 46.364 46.364c25.605 0 46.364-20.758 46.364-46.364s-20.758-46.364-46.364-46.364zM1196.598-36.435c-25.605 0-46.363 20.758-46.363 46.364s20.758 46.364 46.363 46.364c25.606 0 46.364-20.758 46.364-46.364s-20.758-46.364-46.364-46.364zM530.698 233.337l-97.338 201.797-168.561-237.409-99.712 106.834-151.941-273.020h688.488l-135.324 261.15zM514.95 862.907c0-42.229-34.233-76.461-76.461-76.461s-76.461 34.233-76.461 76.461c0 42.229 34.233 76.461 76.461 76.461s76.461-34.233 76.461-76.461zM42.097 710.436c0.067 0 0.134 0 0.201 0s0.134 0 0.201 0c30.275 0 54.033-10.762 77.724-21.512 23.694-10.752 47.323-21.491 77.362-21.491 30.040 0 53.669 10.739 77.364 21.491 23.692 10.749 47.449 21.512 77.724 21.512 0.067 0 0.134 0 0.201 0s0.134 0 0.201 0c30.275 0 54.033-10.762 77.724-21.512 15.798-7.168 31.569-14.331 49.228-18.31 8.828-1.987 18.125-3.181 28.135-3.181 30.039 0 53.668 10.739 77.362 21.491 9.378 4.255 18.767 8.511 28.566 12.103v31.758c-9.759-3.582-19.114-7.824-28.467-12.066v0c-23.693-10.75-47.362-21.512-77.461-21.512-23.526 0-43.125 6.575-61.876 14.581-5.238 2.237-10.411 4.584-15.585 6.933-23.695 10.75-47.412 21.49-77.626 21.49-0.067 0-0.134 0-0.2 0l-0.002 0.119v-0.119c-0.067 0-0.134 0-0.201 0-30.216 0-53.932-10.739-77.626-21.49-23.692-10.75-47.361-21.512-77.462-21.512-30.099 0-53.768 10.762-77.46 21.512-9.621 4.365-19.244 8.729-29.306 12.371-14.719 5.331-30.374 9.12-48.321 9.12-0.067 0-0.134 0-0.201 0s-0.134 0-0.201 0c-12.291 0-23.507-1.777-34.083-4.609v-31.768c10.196 2.726 20.988 4.473 32.763 4.595 0.438 0.004 0.878 0.007 1.32 0.007zM8.013 683.235v-31.766c10.575 2.827 21.792 4.6 34.083 4.6 0.067 0 0.134 0 0.201 0s0.134 0 0.201 0c30.275 0 54.033-10.762 77.724-21.512 23.694-10.752 47.323-21.491 77.362-21.491 30.040 0 53.669 10.739 77.364 21.491 23.692 10.749 47.449 21.512 77.724 21.512 0.067 0 0.134 0 0.201 0s0.134 0 0.201 0c30.275 0 54.033-10.762 77.724-21.512 23.695-10.752 47.323-21.491 77.364-21.491 30.039 0 53.668 10.739 77.362 21.491 9.378 4.255 18.767 8.511 28.566 12.101v31.759c-9.758-3.581-19.114-7.822-28.466-12.065-23.694-10.749-47.363-21.512-77.462-21.512v0c-30.101 0-53.769 10.762-77.462 21.512-23.695 10.75-47.412 21.49-77.626 21.49-0.067 0-0.134 0-0.2 0l-0.002 0.119v-0.119c-0.067 0-0.134 0-0.201 0-30.216 0-53.932-10.739-77.626-21.49-23.692-10.75-47.361-21.512-77.462-21.512-30.099 0-53.768 10.762-77.46 21.512-23.694 10.75-47.412 21.49-77.626 21.49-0.067 0-0.134 0-0.201 0s-0.134 0-0.201 0c-12.291 0-23.507-1.777-34.083-4.609zM42.298 599.67c0.067 0.002 0.134 0.002 0.201 0.002 30.275 0 54.033-10.762 77.724-21.512 23.694-10.752 47.323-21.49 77.362-21.49 30.040 0 53.669 10.738 77.364 21.49 23.692 10.75 47.449 21.512 77.724 21.512 0.067 0 0.134 0 0.201-0.002 0.067 0.002 0.134 0.002 0.201 0.002 30.275 0 54.033-10.762 77.724-21.512 23.695-10.752 47.323-21.49 77.364-21.49 30.039 0 53.668 10.738 77.362 21.49 9.378 4.255 18.767 8.513 28.566 12.103v31.758c-9.758-3.58-19.114-7.82-28.466-12.065-23.694-10.751-47.363-21.512-77.462-21.512v0c-30.101 0-53.769 10.761-77.462 21.512-23.695 10.752-47.412 21.491-77.626 21.491-0.067 0-0.134 0-0.2-0.002l-0.002 0.119v-0.119c-0.067 0.002-0.134 0.002-0.201 0.002-30.216 0-53.932-10.739-77.626-21.491-23.692-10.75-47.361-21.512-77.462-21.512-30.099 0-53.768 10.761-77.46 21.512-23.694 10.752-47.412 21.491-77.626 21.491-0.067 0-0.134 0-0.201-0.002-0.067 0.002-0.134 0.002-0.201 0.002-12.291 0-23.507-1.777-34.083-4.61v-31.766c10.575 2.827 21.792 4.602 34.083 4.602 0.067 0 0.134 0 0.201-0.002zM44.558 798.373c6.561-15.864 24.91-23.475 40.776-16.912l147.861 61.16c9.253 3.829 21.872 0.504 28.038-7.386l3.203-4.097c6.166-7.891 3.748-17.727-5.376-21.859l-159.879-72.402c8.132-3.204 15.986-6.768 23.632-10.236l0.117-0.054c23.662-10.737 46.014-20.878 74.656-20.878s50.994 10.141 74.658 20.878l0.117 0.053c23.914 10.851 48.643 22.072 80.313 22.072h0.402c31.67 0 56.399-11.221 80.313-22.072l0.079-0.036c1.433-0.65 2.88-1.307 4.336-1.965l-135.242 173.048c-11.448 12.076-27.643 19.608-45.598 19.608-6.19 0-12.17-0.9-17.819-2.568l-89.13-36.868c-0.003-0.002-0.005-0.003-0.008-0.003l-89.272-36.927c-15.864-6.563-23.475-24.911-16.914-40.776l0.737-1.781zM1123.043 580.654c-1.911-2.441-3.433-3.788 0-6.423 5.297-4.535 56.001-8.701 96.889-10.772 26.304 44.138 41.419 95.719 41.419 150.831 0 49.438-12.161 96.033-33.652 136.964v0c-34.57-1.673-77.062-5.121-86.371-6.873-4.822-1-4.822-2.416-1.407-6.868 17.447-19.471 55.943-151.959-16.878-256.858zM892.655 735.579c16.077 0.784 84.499-21.838 104.941-34.505 6.222-3.855 7.151-7.603 0.998-12.263-18.109-13.937-95.78-7.771-102.481-4.206-8.313 2.431-15.238 0.742-5.561-12.725 15.716-21.874 167.25-102.767 201.977-97.393 5.908 1.897 6.657 3.609 8.689 5.347 46.528 44.128 73.474 184.956 21.387 257.985-4.704 6.229-7.912 7.46-14.703 6.015v0c-68.528-11.157-194.678-68.866-217.884-91.564-17.218-15.586 0.214-16.334 2.638-16.69zM1033.717 779.495c9.367 0 16.959-7.556 16.959-16.877s-7.592-16.877-16.959-16.877c-9.366 0-16.957 7.556-16.957 16.877s7.591 16.877 16.957 16.877zM844.251 599.924c5.392 9.339 5.686 20.82 4.41 31.244v0c-2.365 19.316-15.873 55.152-22.563 56.845 14.069-28.856-1.054-58.705-0.228-60.569 4.192 4.231 9.061 13.307 11.343 22.005 0.248-0.917 1.2-4.4 1.431-5.323 1.863-7.391 3.157-14.954 3.159-22.59 0.002-3.377-0.251-6.156-0.824-8.995-0.266-1.319-0.614-2.618-1.020-3.898-0.547-1.725-0.689-2.004-1.233-3.153-0.498-1.051-1.074-2.065-1.696-3.047-0.3-0.475-0.621-0.934-0.95-1.39-0.014-0.019-0.024-0.033-0.036-0.050 0.11 0.139 0.136 0.168 0.121 0.145 0.009 0.015-0.017-0.014-0.12-0.145-0.104-0.145-0.131-0.186-0.124-0.179-0.016-0.019 0.008 0.020 0.124 0.179-0.017-0.021-0.033-0.041-0.054-0.069-0.225-0.285-0.46-0.564-0.696-0.841-0.698-0.816-1.456-1.581-2.245-2.31-0.389-0.36-0.794-0.703-1.203-1.039-0.036-0.029-0.102-0.081-0.173-0.137 0.036 0.026 0.074 0.052 0.109 0.079-0.004-0.003-0.007-0.005-0.011-0.008-0.032-0.024-0.065-0.047-0.096-0.069-0.114-0.090-0.239-0.187-0.264-0.206-0.018-0.014 0.128 0.1 0.262 0.206-0.245-0.185-0.492-0.366-0.741-0.542-1.79-1.274-3.729-2.327-5.728-3.233-0.14-0.063-0.281-0.124-0.422-0.185 0.136 0.058 0.224 0.095 0.107 0.045-0.029-0.012-0.063-0.027-0.106-0.045-0.045-0.019-0.089-0.038-0.134-0.058-0.052-0.022-0.107-0.046-0.174-0.074 0.102 0.043 0.204 0.090 0.306 0.133-0.126-0.052-0.289-0.121-0.361-0.15-0.494-0.198-0.994-0.383-1.495-0.563-1.093-0.392-2.2-0.735-3.315-1.051-2.156-0.614-4.352-1.087-6.559-1.486-1.055-0.19-2.115-0.357-3.175-0.513-0.416-0.062-0.834-0.117-1.252-0.173 0.019 0.002 0.014 0.001-0.006-0.002-0.024-0.003-0.047-0.007-0.071-0.010-0.055-0.008-0.132-0.018-0.254-0.034 0.11 0.014 0.221 0.030 0.331 0.046-0.136-0.016-1.196-0.149-1.434-0.178-8.415-0.986-17.073-2.17-25.552-1.968-1.171 0.028-2.341 0.091-3.509 0.178-0.592 0.043-1.186 0.099-1.777 0.159-0.271 0.028-1.465 0.175-1.606 0.187-0.002 0-0.003 0.001-0.005 0.001s-0.001 0-0.002 0-0.001 0-0.001 0 0.001 0 0.001 0c-0.021 0.001 0.024-0.007 0.173-0.027 0.007-0.001 0.013-0.002 0.019-0.003-0.179 0.025-0.225 0.033-0.192 0.030-2.457 0.351-4.889 0.867-7.28 1.539-1.196 0.337-2.377 0.727-3.546 1.152-0.542 0.197-1.079 0.411-1.614 0.63-0.010 0.003-0.052 0.019-0.136 0.054 0.004-0.002 0.008-0.003 0.013-0.005 0.069-0.030 0.107-0.044 0.12-0.048 0.001 0 0.002-0.001 0.003-0.001 0 0-0.001 0-0.001 0s0.003-0.001 0.003-0.001c-0.001 0.001-0.003 0.001-0.003 0.002 0.062-0.014-1.265 0.575-1.558 0.713-2.384 1.136-4.646 2.514-6.774 4.074 0.002-0.004-0.031 0.019-0.119 0.084 0.025-0.019 0.052-0.036 0.077-0.054 0.009-0.007 0.018-0.013 0.024-0.017s0.013-0.008 0.019-0.013c0 0-0.006 0.005-0.006 0.005 0.002-0.001 0.009-0.006 0.008-0.005-0.004 0.003-0.009 0.006-0.014 0.009-0.063 0.060-0.979 0.776-1.17 0.936-0.52 0.43-1.021 0.881-1.518 1.336-1.105 1.016-2.141 2.106-3.13 3.237-1.64 1.88-3.381 4.458-4.886 7.205-3.481 6.359-5.385 13.775-6.435 21.306-1.448 10.381-0.887 21.097 0.263 31.473 0.84 7.578 2.407 15.038 3.465 22.584 1.693 12.065 2.761 24.21 3.664 36.355 1.666 22.394 2.733 44.835 3.543 67.282 6.224 1.334 10.892 6.86 10.892 13.482 0 6.312-4.243 11.62-10.029 13.26 0.063 2.163 0.128 4.326 0.189 6.489 0.894 31.815 1.448 63.641 1.809 95.468 0.064 5.644 0.125 11.286 0.178 16.93 0.055 5.855 0.097 11.712 0.14 17.567-2.559-2.7-5.077-5.44-7.552-8.217-0.096-11.578-0.219-23.157-0.364-34.733-0.038-3.097-0.071-6.193-0.114-9.29-0.391-28.070-0.93-56.141-1.768-84.202-5.81-1.624-10.076-6.945-10.076-13.272 0-6.004 3.843-11.098 9.198-12.993-0.020-0.559-0.039-1.12-0.059-1.679-1.126-30.035-2.389-60.166-5.613-90.064-0.29-2.7-0.608-5.399-0.953-8.092-0.078-0.603-0.157-1.207-0.238-1.809-0.022-0.164-0.045-0.328-0.067-0.494 0.008 0.067-0.067-0.475-0.083-0.586-0.169-1.2-0.349-2.398-0.537-3.594-1.552-9.886-3.312-19.675-3.923-29.683-1.036-16.952 0.438-35.581 9.781-50.272 6.391-10.050 16.375-16.906 27.812-19.973 9.446-2.534 19.073-2.334 28.7-1.308 17.752 1.891 39.113 2.634 49.175 20.070z" />
<glyph unicode="&#xe905;" glyph-name="category-badeliv" d="M856.616 641.401c0-71.356-57.848-129.204-129.204-129.204-71.358 0-129.202 57.848-129.202 129.204s57.844 129.204 129.202 129.204c71.356 0 129.204-57.848 129.204-129.204zM976.042 401.134c-40.036-18.166-80.032-36.352-130.894-36.352-39.754 0-72.872 11.108-104.559 24.637-8.851 3.779-17.592 7.748-26.335 11.715-40.038 18.166-80.116 36.313-131.172 36.313h-0.338l-0.002 0.201v-0.201h-0.34c-51.059 0-91.132-18.147-131.17-36.313-40.036-18.166-80.032-36.352-130.894-36.352s-90.857 18.186-130.894 36.352c-16.257 7.377-32.516 14.748-49.519 20.904-24.873 9.007-51.327 15.409-81.652 15.409h-0.68c-20.771 0-39.721-3.002-57.594-7.786v-53.68c17.228 4.606 35.465 7.557 55.364 7.764 0.741 0.006 1.483 0.012 2.23 0.012h0.68c51.157 0 91.302-18.186 131.336-36.35 40.040-18.168 79.966-36.317 130.728-36.317 50.76 0 90.687 18.149 130.728 36.317 40.034 18.164 80.179 36.35 131.336 36.35h0.68c51.157 0 91.304-18.186 131.338-36.35 26.696-12.114 53.346-24.22 83.184-30.941 14.916-3.357 30.628-5.376 47.544-5.376 50.76 0 90.687 18.149 130.726 36.317 15.847 7.188 31.711 14.381 48.271 20.449v53.664c-16.49-6.050-32.299-13.218-48.103-20.386zM845.148 272.914c-50.864 0-90.86 18.186-130.894 36.352-40.038 18.166-80.116 36.313-131.172 36.313h-0.338l-0.002 0.203v-0.203h-0.34c-51.059 0-91.132-18.147-131.17-36.313-40.036-18.166-80.032-36.352-130.894-36.352s-90.857 18.186-130.892 36.352c-40.040 18.166-80.118 36.313-131.172 36.313h-0.68c-20.771 0-39.721-3-57.594-7.786v-53.678c17.869 4.776 36.823 7.774 57.594 7.774h0.68c51.157 0 91.302-18.186 131.338-36.35 40.038-18.168 79.964-36.317 130.726-36.317 50.76 0 90.687 18.149 130.728 36.317 40.034 18.164 80.181 36.35 131.336 36.35h0.68c51.159 0 91.304-18.186 131.338-36.35 40.038-18.168 79.966-36.317 130.728-36.317 50.76 0 90.687 18.149 130.726 36.317 15.847 7.188 31.711 14.381 48.271 20.449v53.666c-16.49-6.052-32.299-13.218-48.103-20.388-40.036-18.166-80.032-36.352-130.894-36.352zM845.148 177.614c-50.864 0-90.86 18.184-130.894 36.35-40.038 18.168-80.116 36.315-131.172 36.315-0.115 0-0.225 0-0.338-0.002l-0.002 0.203v-0.203c-0.113 0.002-0.225 0.002-0.34 0.002-51.059 0-91.132-18.147-131.17-36.315-40.036-18.166-80.032-36.35-130.894-36.35s-90.857 18.184-130.892 36.35c-40.040 18.168-80.118 36.315-131.172 36.315-0.113 0-0.227 0-0.34-0.002v0c-0.113 0.002-0.227 0.002-0.34 0.002-20.771 0-39.721-3-57.594-7.789v-53.678c17.869 4.778 36.823 7.776 57.594 7.776 0.113 0 0.227 0 0.34-0.002 0.113 0.002 0.227 0.002 0.34 0.002 51.157 0 91.302-18.186 131.338-36.352 40.038-18.168 79.964-36.315 130.726-36.315 50.76 0 90.687 18.147 130.728 36.315 40.034 18.166 80.181 36.352 131.336 36.352 0.115 0 0.227 0 0.34-0.002 0.115 0.002 0.225 0.002 0.34 0.002 51.159 0 91.304-18.186 131.338-36.352 40.038-18.168 79.966-36.315 130.728-36.315 50.76 0 90.687 18.147 130.726 36.315 15.847 7.188 31.711 14.383 48.271 20.449v53.666c-16.49-6.048-32.299-13.216-48.103-20.388-40.036-18.166-80.032-36.35-130.894-36.35zM194.183 411.050c39.983-18.143 77.754-35.281 126.155-35.281s86.168 17.138 126.155 35.281l0.197 0.090c40.411 18.336 82.196 37.296 135.713 37.296h0.68c53.516 0 95.302-18.96 135.713-37.296l0.133-0.059c2.423-1.1 4.866-2.208 7.328-3.32l-228.532 292.411c-19.345 20.406-46.711 33.135-77.050 33.135-10.461 0-20.564-1.52-30.112-4.34l-150.61-62.298c-0.006-0.002-0.010-0.004-0.014-0.004l-150.852-62.401c-26.806-11.088-39.668-42.095-28.58-68.901l1.245-3.011c11.088-26.806 42.093-39.668 68.903-28.578l249.854 103.348c15.636 6.47 36.958 0.852 47.378-12.483l5.411-6.922c10.42-13.335 6.334-29.956-9.083-36.936l-270.162-122.348c13.742-5.413 27.013-11.436 39.934-17.295l0.197-0.090z" />
<glyph unicode="&#xe906;" glyph-name="category-baitliv" d="M786.772 313.128c-31.707-21.766-77.128-28.348-106.617-27.978-29.475 0.406-74.725 8.245-105.812 30.849-31.685-21.758-77.119-28.361-106.602-27.97-29.508 0.385-74.709 8.235-105.826 30.826-31.701-21.772-77.107-28.363-106.621-27.967-29.487 0.408-74.676 8.229-105.81 30.835-31.697-21.766-77.117-28.371-106.611-27.961-13.246 0.16-24.723 1.378-35.369 3.004l-0.797-58.622c10.308-1.116 21.93-1.978 35.398-2.154 61.395-0.809 84.060 12.597 106.607 28.031 31.119-22.628 76.311-30.489 105.814-30.874 29.493-0.426 74.893 6.228 106.596 28.021 31.117-22.649 76.337-30.507 105.845-30.88 29.475-0.406 74.891 6.23 106.592 28.013 31.093-22.645 76.337-30.501 105.826-30.89 29.481-0.395 74.899 6.22 106.611 28.017 31.085-22.632 76.3-30.493 105.791-30.878 14.664-0.205 26.094 1.628 35.471 4.276l0.788 58.022c-9.515-2.857-20.99-4.801-35.463-4.602-29.499 0.455-74.732 8.278-105.812 30.882zM632.548 629.089c28.238 4.79 57.006 9.464 85.547 13.711l-68.817 55.106h-32.133l15.403-68.817zM510.655 606.795c29.839 5.714 62.57 11.852 96.582 17.797l-15.565 73.314h-93.71l12.694-91.111zM408.89 586.249c20.357 4.334 46.453 9.632 76.315 15.524l-12.73 96.088h-76.329l12.745-111.612zM749.145 647.312c142.834 20.025 270.584 27.464 270.76-10.033 0.354-84.916-167.879-295.459-167.879-295.459h-788.736l-27.578 69.839 68.084-1.522 62.288 108.485 195.895 57.663c0 0 7.719 1.683 21.443 4.657l-12.716 116.976h-50.876v29.266h340.539l88.777-79.872z" />
<glyph unicode="&#xe907;" glyph-name="category-dykking" d="M202.325 360.666l38.193 45.599 154.593-44.95 5.554 3.738 23.325 77.072-137.599 20.937c1.13 3.207 1.456 6.658 0.67 10.052-1.298 5.526-5.114 10.138-10.326 12.429l-6.795 2.988c-6.244 2.755-13.5 1.759-18.772-2.566l-105.994-87.212-141.761-63.724 118.553-48.742 80.359 74.379zM859.478 437.25c23.187-37.634 72.483-49.306 110.096-26.118 37.603 23.177 49.306 72.473 26.118 110.086-23.19 37.614-72.483 49.306-110.086 26.126-37.622-23.196-49.324-72.491-26.128-110.094zM452.666 658.376v-91.402c0-7.7 6.244-13.935 13.953-13.935h61.469v119.271h-61.469c-7.709 0-13.953-6.244-13.953-13.935zM791.834 558.989c39.981 24.672 39.924 82.688-0.049 107.303-7.799 4.809-17.142 6.019-26.294 6.019h-33.808v-119.271h34.054c9.075 0 18.36 1.171 26.098 5.949zM699.625 672.309h-139.487v-119.271h139.487v119.271zM280.963 156.602l8.694 42.224 169.755 68.962c22.766 9.245 42.363 24.879 56.416 45.048l40.552 58.147 171.467 11.219 85.996-94.618 190.001-26.835c3.521-0.52 7.1 0.539 9.785 2.882 2.695 2.329 4.227 5.712 4.227 9.261v32.264c0 5.409-3.539 10.179-8.712 11.751l-153.874 46.828-74.971 114.678c-10.148 15.518-27.453 24.889-46.010 24.889h-219.582c-24.23 0-45.617-15.862-52.627-39.078l-32.52-107.411-5.724-3.854-123.773-83.171c-0.541 1.022-1.141 2.025-1.878 2.939-3.363 4.198-8.448 6.676-13.826 6.746l-9.607 0.139c-0.463 0-0.905-0.061-1.358-0.082-6.304-0.383-11.997-4.012-14.926-9.665l-0.295-0.551-18.104-34.91-33.13-63.83-109.298-107.213h120.056l63.269 93.241zM902.54 668.809c0-12.351 10-22.37 22.362-22.37 12.36 0 22.381 10.019 22.381 22.37 0 12.362-10.021 22.37-22.381 22.37-12.362 0-22.362-10.009-22.362-22.37zM901.084 753.387c0 14.682-11.899 26.589-26.589 26.589-14.682 0-26.581-11.907-26.581-26.589 0-14.672 11.899-26.581 26.581-26.581 14.69 0 26.589 11.909 26.589 26.581zM991.768 810.372c0 18.467-14.967 33.444-33.423 33.444-18.459 0-33.442-14.977-33.442-33.444 0-18.448 14.983-33.423 33.442-33.423 18.457 0 33.423 14.975 33.423 33.423z" />
<glyph unicode="&#xe908;" glyph-name="category-fiske" d="M949.016 630.337c-64.705-3.131-144.239-9.585-161.661-12.866-9.026-1.872-9.026-4.522-2.636-12.853 32.659-36.446 104.71-284.424-31.588-480.766-3.578-4.569-6.427-7.090 0-12.022 9.912-8.491 104.817-16.286 181.346-20.163 49.234 82.614 77.525 179.159 77.525 282.315 0 92.531-22.761 179.745-62.986 256.354zM585.936 432.848c-17.531 0-31.738 14.143-31.738 31.59 0 17.445 14.207 31.588 31.738 31.588 17.533 0 31.744-14.143 31.744-31.588 0-17.447-14.211-31.59-31.744-31.59zM724.788 616.449c-128.266-20.881-364.384-128.897-407.818-171.381-32.225-29.174 0.401-30.575 4.938-31.24 30.091 1.466 158.159-40.876 196.42-64.584 11.647-7.217 13.386-14.232 1.868-22.952-33.892-26.087-179.272-14.545-191.814-7.873-15.561 4.551-28.522 1.391-10.41-23.818 29.417-40.942 313.045-192.352 378.044-182.292 11.057 3.553 12.46 6.754 16.263 10.007 87.087 82.594 137.523 346.186 40.030 482.875-8.804 11.659-14.811 13.963-27.521 11.258zM194.296 146.048c1.163 0.5 0.971 0.416 0.573 0.248-0.19-0.080-0.381-0.166-0.573-0.248zM207.971 153.858c-0.066-0.049-0.137-0.098-0.205-0.145-0.434-0.342-0.961-0.748 0.205 0.145zM215.949 161.94c-0.831-1.157 0.817 1.034 0 0zM23.694 319.664c-0.035-0.242-0.068-0.483-0.1-0.727 0.066 0.477 0.092 0.682 0.1 0.727zM101.567 135.84c-0.121 0.016-0.24 0.039-0.358 0.055-0.063 0.004 0.025-0.010 0.358-0.055zM62.328 151.072c-0.074 0.053-0.15 0.104-0.223 0.158 0.164-0.121 0.225-0.166 0.223-0.158zM164.011 138.844c0.575 0.076 0.717 0.096 0.621 0.086-0.207-0.031-0.414-0.059-0.621-0.086zM239.563 218.402c-4.426 36.153-29.71 103.227-42.232 106.396 26.335-54.008-1.972-109.877-0.428-113.367 7.848 7.918 16.959 24.908 21.232 41.187 0.463-1.718 2.245-8.235 2.679-9.964 3.484-13.834 5.908-27.99 5.913-42.283 0.002-6.32-0.469-11.522-1.542-16.835-0.498-2.468-1.149-4.901-1.909-7.297-1.024-3.228-1.29-3.752-2.308-5.902-0.932-1.968-2.009-3.863-3.172-5.704-0.561-0.887-1.163-1.749-1.78-2.599-0.027-0.039-0.045-0.063-0.066-0.094 0.817 1.034-0.831-1.159 0 0-0.033-0.041-0.061-0.076-0.102-0.129-0.42-0.535-0.86-1.055-1.303-1.573-1.307-1.528-2.726-2.961-4.202-4.327-0.727-0.674-1.485-1.315-2.251-1.944-0.066-0.055-0.19-0.154-0.324-0.256 0.066 0.049 0.137 0.096 0.203 0.145-1.165-0.891-0.639-0.487-0.203-0.145-0.459-0.348-0.922-0.684-1.389-1.016-3.351-2.384-6.978-4.358-10.719-6.052-0.262-0.119-0.526-0.231-0.791-0.348 0.397 0.168 0.59 0.252-0.573-0.248 0.193 0.082 0.381 0.168 0.573 0.248-0.236-0.098-0.541-0.225-0.676-0.281-0.926-0.371-1.862-0.715-2.798-1.051-2.044-0.735-4.119-1.376-6.203-1.968-4.039-1.151-8.147-2.036-12.276-2.783-1.976-0.358-3.959-0.67-5.943-0.958-0.78-0.117-1.563-0.221-2.343-0.326 0.096 0.010-0.043-0.010-0.621-0.086 0.207 0.027 0.416 0.057 0.621 0.086-0.254-0.029-2.238-0.276-2.683-0.334-15.749-1.843-31.955-4.059-47.825-3.682-2.191 0.053-4.381 0.17-6.568 0.332-1.11 0.084-2.22 0.186-3.326 0.299-0.512 0.051-2.796 0.334-3.021 0.352 0.119-0.018 0.238-0.041 0.358-0.055-0.334 0.045-0.42 0.059-0.358 0.055-4.598 0.655-9.15 1.624-13.625 2.879-2.241 0.631-4.45 1.36-6.638 2.157-1.016 0.369-2.021 0.77-3.021 1.178-0.020 0.004-0.098 0.035-0.256 0.1 0.084-0.035 0.17-0.066 0.256-0.1 0.137-0.035-2.37 1.073-2.918 1.335-4.463 2.126-8.696 4.706-12.679 7.627 0.002-0.008-0.057 0.037-0.223 0.158 0.074-0.053 0.15-0.104 0.223-0.158-0.014 0.035-1.841 1.46-2.212 1.767-0.971 0.805-1.911 1.649-2.841 2.503-2.068 1.903-4.008 3.944-5.857 6.060-3.070 3.516-6.328 8.344-9.144 13.484-6.513 11.901-10.078 25.784-12.042 39.881-2.712 19.431-1.661 39.487 0.492 58.909 1.571 14.184 4.504 28.146 6.484 42.269 3.168 22.583 5.169 45.314 6.859 68.047 4.655 62.601 6.838 125.393 8.6 188.133 1.673 59.548 2.712 119.116 3.387 178.688 0.121 10.564 0.233 21.123 0.332 31.687 0.104 10.961 0.182 21.922 0.264 32.881-4.79-5.054-9.503-10.183-14.135-15.38-0.18-21.67-0.412-43.342-0.682-65.010-0.070-5.796-0.133-11.592-0.213-17.388-0.975-69.98-2.443-139.962-5.063-209.906-2.109-56.218-4.473-112.611-10.506-168.573-0.545-5.054-1.139-10.105-1.784-15.147-0.145-1.128-0.297-2.259-0.446-3.387-0.041-0.307-0.084-0.614-0.125-0.926-0.008-0.045-0.035-0.25-0.1-0.727 0.033 0.244 0.066 0.485 0.1 0.727 0.014 0.127-0.125-0.887-0.154-1.096-0.319-2.245-0.653-4.489-1.006-6.728-2.904-18.504-6.199-36.825-7.342-55.56-1.939-31.728 0.819-66.595 18.307-94.093 11.962-18.813 30.648-31.642 52.056-37.384 17.68-4.745 35.699-4.37 53.719-2.447 33.227 3.541 73.208 4.932 92.039 37.564 10.086 17.48 10.637 38.973 8.249 58.483zM77.924 142.11c-0.086 0.035-0.172 0.066-0.256 0.1 0.158-0.066 0.236-0.096 0.256-0.1zM45.26 560.975c-14.258 0-25.819-11.561-25.819-25.817 0-14.258 11.561-25.817 25.819-25.817s25.817 11.559 25.817 25.817c0 14.256-11.559 25.817-25.817 25.817z" />
<glyph unicode="&#xe909;" glyph-name="category-fottur" d="M529.518 716.766c55.101 0 99.772 44.669 99.772 99.77 0 55.103-44.671 99.772-99.772 99.772s-99.77-44.669-99.77-99.772c0-55.101 44.669-99.77 99.77-99.77zM821.304 498.398h-3.764v41.89h-26.356v-41.89h-123.906c-28.066 44.288-60.877 85.594-93.958 126.224 2.036 29.516-14.692 58.223-43.692 69.616-35.803 14.070-76.233-3.549-90.3-39.352l-107.399-273.324c-6.59-16.773-6.001-34.48-0.070-50.098v-119.204c0-1.139 0.236-2.122 0.317-3.209-41.886-42.496-82.729-86.008-124.83-128.297-34.284-34.437 18.954-87.687 53.244-53.246 45.713 45.918 81.297 84.361 126.798 130.486 15.786 16.005 15.786 29.27 18.311 43.833 0.856 3.215 1.458 6.621 1.458 10.433v75.248c14.975 2.29 28.983 9.159 39.621 20.134 39.502-39.502 79.006-79.004 118.508-118.505v-183.949c0-48.558 75.301-48.558 75.301 0 0 69.026 2.095 122.911 0 191.904-0.942 30.951-13.715 35.867-26.835 50.067-44.261 44.263-88.523 88.525-132.786 132.788l63.304 161.104c21.311-27.124 41.88-54.831 60.201-84.050 10.609-16.706 13.455-33.903 36.116-33.903h150.598v-454.328h26.356v454.328h3.764c48.558 0 48.558 75.301 0 75.301zM239.922 392.596c34.99-13.365 74.193 4.164 87.558 39.156l71.211 186.421c13.365 34.99-4.164 74.193-39.156 87.558-34.99 13.367-74.191-4.164-87.558-39.156l-71.211-186.423c-13.365-34.988 4.166-74.191 39.156-87.556z" />
<glyph unicode="&#xe90a;" glyph-name="category-friluftomralder" d="M315.556 207.676c22.065 0 21.789 32.93 0 34.036-23.847 1.21 17.461 90.266 22.161 99.973 21.117 43.62 51.843 78.705 97.671 87.091-12.73-41.132-3.629-95.842 15.229-129.284 6.263-11.104 23.099-10.992 29.389 0 17.969 31.408 40.989 70.654 77.349 84.308-2.169-33.886-15.464-66.922-17.164-101.245-0.75-15.118 18.94-22.149 29.051-12.032 26.288 26.298 56.771 32.201 89.487 26.649-18.393-33.198-21.783-72.471 8.974-103.229 43.485-43.483 95.41-2.437 128.344 31.324 69.659 71.408 87.955 221.749 25.059 300.765-8.552 10.744-24.797 3.367-28.443-7.51-12.939-38.584-17.766-83.618-59.367-96.301 17.246 83.057-13.101 164.796-54.18 238.211-7.117 12.716-27.568 10.193-31.105-4.065-13.074-52.711-35.197-90.348-84.161-106.224 9.748 45.492 19.472 84.777 17.183 135.735-2.312 51.462-14.555 104.933-36.358 151.54-12.79 27.333-85.793 149.674-116.699 74.783-0.885-2.146-0.838-4.332-0.465-6.482-0.031-2.83 0.721-5.835 2.685-8.899 39.698-61.911 59.861-112.685 7.125-177.433-28.991-35.594-76.048-56.422-115.102-78.762-67.183-38.433-102.504-90.739-123.775-164.608-26.311-91.38-9.267-268.341 117.111-268.341zM788.556-17.834c-41.622 0-75.362 33.743-75.362 75.362 0 41.624 33.741 75.364 75.362 75.364s75.362-33.741 75.362-75.364c0-41.619-33.741-75.362-75.362-75.362zM612.008-17.834c-41.622 0-75.362 33.743-75.362 75.362 0 41.624 33.741 75.364 75.362 75.364 41.619 0 75.364-33.741 75.364-75.364 0-41.619-33.745-75.362-75.364-75.362zM435.458-17.834c-41.619 0-75.362 33.743-75.362 75.362 0 41.624 33.743 75.364 75.362 75.364 41.624 0 75.364-33.741 75.364-75.364 0-41.619-33.741-75.362-75.364-75.362zM258.91-17.834c-41.619 0-75.362 33.743-75.362 75.362 0 41.624 33.743 75.364 75.362 75.364 41.624 0 75.364-33.741 75.364-75.364 0-41.619-33.741-75.362-75.364-75.362zM788.556 151.069c-40.886 0-75.555-26.276-88.275-62.829-12.72 36.553-47.387 62.829-88.273 62.829s-75.553-26.276-88.275-62.829c-12.72 36.553-47.389 62.829-88.275 62.829-40.884 0-75.553-26.276-88.273-62.829-12.722 36.553-47.389 62.829-88.275 62.829-51.659 0-93.54-41.88-93.54-93.54s41.882-93.538 93.54-93.538c40.886 0 75.553 26.276 88.275 62.826 12.72-36.551 47.389-62.826 88.273-62.826 40.886 0 75.555 26.276 88.275 62.826 12.722-36.551 47.389-62.826 88.275-62.826s75.553 26.276 88.273 62.826c12.72-36.551 47.389-62.826 88.275-62.826 51.661 0 93.54 41.878 93.54 93.538s-41.88 93.54-93.54 93.54z" />
<glyph unicode="&#xe90b;" glyph-name="category-fuglekikking" d="M830.72 762.759c-9.81 0-17.797 7.954-17.797 17.775 0 9.791 7.987 17.758 17.797 17.758 6.773 0 12.587-3.848 15.579-9.378 1.362-2.499 2.208-5.353 2.208-8.38 0-3.049-0.846-5.855-2.208-8.364-2.992-5.585-8.806-9.411-15.579-9.411zM804.395 874.4c-51.206 0-92.731-41.488-92.731-92.701v-127.431c2.454-3.59 4.927-7.178 7.246-10.879 15.018-24.445 27.752-51.040 35.019-80.126 7.301-28.951 8.686-60.686 1.171-90.542-1.88-7.549-4.119-14.508-7.1-22.055l-2.271-5.147c-0.922-1.987-1.733-3.59-2.644-5.427-1.81-3.504-3.781-6.887-5.849-10.17-8.335-13.206-18.629-24.599-29.768-34.267-22.385-19.382-47.718-32.309-73.245-42.316-25.639-9.998-51.907-16.712-78.174-21.848-26.29-5.059-52.726-8.526-79.141-10.607-2.824-0.197-5.298 1.772-5.693 4.579-0.416 2.796 1.419 5.376 4.151 5.99h0.023c25.584 5.53 50.895 11.913 75.497 20.017 24.603 8.004 48.519 17.709 70.806 29.42 22.184 11.778 42.815 25.95 58.417 43.112 7.799 8.579 14.219 17.83 18.821 27.535 1.137 2.435 2.195 4.86 3.107 7.334 0.449 1.204 0.944 2.576 1.247 3.629l1.262 4.094c1.372 4.86 2.722 10.568 3.508 15.901 3.353 21.701 0.438 43.948-7.008 65.413-7.459 21.451-18.989 42.195-33.085 61.456-7.076 9.578-14.67 18.915-22.723 27.847-0.721 0.772-1.475 1.518-2.208 2.318-98.017 4.85-275.603-26.831-360.919-295.039l-265.705-63.547v-33.204h287.449c0 0 96.377-30.831 213.901-33.227v-151.802h-53.662v-51.743h246.075c0 0 4.624 29.334-21.778 51.743h-110.551v153.231c123.173 8.751 255.107 56.203 319.275 202.672v309.59h111.868v34.513l-114.995 42.519c-10.426 39.78-46.539 69.163-89.592 69.163z" />
<glyph unicode="&#xe90c;" glyph-name="category-kulturhistoriske" d="M879.596 447.924c0 95.508 0.129 191.019-0.053 286.527-0.090 46.328-31.244 77.001-77.603 77.007-190.726 0.018-381.452 0.031-572.178-0.002-45.261-0.008-76.681-30.872-76.722-76.171-0.176-191.308-0.188-382.618-0.035-573.925 0.037-45.791 31.252-76.337 77.238-76.546 18.637-0.084 37.272 0.008 55.908 0.008 171.508-0.006 343.017-0.186 514.523 0.326 12.98 0.041 27.103 2.597 38.687 8.165 28.166 13.537 40.292 38.033 40.274 68.958-0.061 95.218-0.023 190.435-0.039 285.653zM999.748 447.959c-0.002-146.209 0-292.42-0.004-438.628 0-28.377-15.913-44.616-44.288-44.622-292.712-0.051-585.423-0.047-878.131-0.004-28.277 0.004-44.485 16.237-44.489 44.515-0.041 292.42-0.047 584.839-0.008 877.259 0.004 28.834 16.169 45.093 44.827 45.097 292.418 0.045 584.837 0.043 877.257 0.008 28.838-0.004 44.831-16.171 44.833-44.997 0.012-146.209 0.006-292.418 0.004-438.628zM516.116 405.694c11.917 0 23.845 0.24 35.754-0.102 5.847-0.168 8.268 1.417 8.182 7.76-0.317 23.255-0.272 46.514-0.027 69.767 0.059 5.657-1.714 7.623-7.459 7.565-24.418-0.248-48.841-0.285-73.257 0.002-6.038 0.072-7.236-2.339-7.184-7.729 0.215-23.253 0.223-46.512-0.023-69.767-0.061-5.587 1.577-7.748 7.387-7.58 12.2 0.352 24.416 0.106 36.626 0.084zM668.794 564.818c7.565 0 15.131-0.051 22.698 0.008 33.735 0.264 58.286 24.16 59.56 57.936 1.149 30.491-24.302 57.477-55.816 59.175-31.433 1.696-60.424-22.376-61.999-52.627-1.012-19.446-0.152-38.984-0.336-58.479-0.043-4.606 1.798-6.13 6.214-6.048 9.89 0.184 19.786 0.057 29.68 0.035zM363.2 564.824c8.729 0 17.488 0.451 26.175-0.135 7.709-0.522 10.787 1.503 10.422 9.955-0.7 16.261-0.166 32.573-0.205 48.865-0.080 32.803-25.883 58.395-58.915 58.483-31.91 0.082-58.624-25.608-59.093-56.83-0.504-33.475 24.875-59.867 58.053-60.31 7.852-0.104 15.708-0.014 23.562-0.029zM399.589 294.711c0 9.892-0.141 19.788 0.063 29.673 0.094 4.606-1.104 6.99-6.304 6.926-19.198-0.236-38.441 0.612-57.59-0.399-31.906-1.686-55.769-29.757-54.096-62.31 1.589-30.878 28.416-55.089 60.336-54.454 32.076 0.633 57.34 25.629 57.58 57 0.059 7.854 0.010 15.71 0.010 23.564zM667.994 331.243c-9.023 0-18.057-0.287-27.064 0.102-5.958 0.256-8.382-1.565-8.079-7.85 0.453-9.292-0.012-18.622 0.139-27.935 0.188-11.62-0.922-23.529 1.214-34.804 5.806-30.667 35.287-50.643 66.136-46.178 30.681 4.438 52.408 30.683 50.592 61.108-1.88 31.519-26.657 55.079-58.487 55.534-8.149 0.115-16.3 0.018-24.451 0.023zM560.371 331.229h-87.966c0-3.66 0.057-7.025-0.010-10.385-0.453-22.682 1.167-45.644-1.804-67.994-8.124-61.069-58.96-106.547-122.155-111.628-57.819-4.647-115.616 34.31-134.179 90.446-28.357 85.754 34.329 173.21 124.776 174.004 17.471 0.154 34.955 0.309 52.419-0.111 6.693-0.164 8.372 2.185 8.276 8.546-0.334 22.422-0.377 44.853 0.018 67.271 0.119 6.83-1.79 8.966-8.782 8.968-23.276 0.014-46.871-1.532-69.755 1.694-53.154 7.487-89.774 38.019-106.678 88.752-17.566 52.728-4.784 100.043 35.467 138.047 39.109 36.923 86.235 45.683 136.233 27.382 50.633-18.534 79.272-56.998 85.539-110.473 2.425-20.691 0.553-41.888 0.674-62.853 0.014-2.568 0.238-5.138 0.397-8.352h87.493c0 11.127-0.106 21.811 0.023 32.496 0.254 21.191-1.442 42.453 4.97 63.265 17.287 56.107 66.791 93.393 125.972 94.388 56.484 0.95 108.278-35.6 126.953-89.59 29.311-84.742-33.454-173.539-123.697-174.877-17.762-0.264-35.535-0.223-53.295 0.061-5.81 0.094-8.301-1.309-8.206-7.727 0.338-23.003 0.319-46.017 0.012-69.018-0.082-6.158 1.933-8.057 7.995-7.946 17.76 0.315 35.529 0.285 53.293 0.059 74.123-0.932 132.233-61.004 131.006-135.297-1.182-71.721-63.117-130.783-135.664-129.374-71.266 1.384-129.012 59.716-129.315 130.685-0.082 19.476-0.012 38.955-0.012 59.56z" />
<glyph unicode="&#xe90d;" glyph-name="category-langrenn" d="M792.992 202.954c-8.413 2.007-13.607 10.578-11.545 19.057l76.61 318.894c2.058 8.497 10.568 13.738 19.040 11.67 8.413-2.023 13.638-10.564 11.575-19.073l-76.64-318.898c-1.757-7.236-8.184-12.11-15.317-12.11-1.206 0-2.458 0.168-3.723 0.461zM298.292 500.322l-260.811 157.049c-7.481 4.506-9.925 14.227-5.405 21.709 4.489 7.451 14.141 9.921 21.592 5.444l260.78-157.049c7.451-4.506 9.894-14.227 5.405-21.725-2.931-4.907-8.139-7.666-13.531-7.666-2.732 0-5.526 0.721-8.030 2.238zM586.496 724.786c-1.159 0.305-2.29 0.522-3.496 0.69-1.038 0.154-2.062 0.305-3.070 0.352-1.071 0.045-2.077 0.045-3.129-0.016-1.13-0.076-2.214-0.106-3.344-0.274-0.995-0.139-1.925-0.354-2.902-0.598-1.069-0.246-2.169-0.522-3.238-0.905-0.961-0.322-1.847-0.737-2.763-1.165-1.069-0.461-2.077-0.936-3.070-1.548-0.84-0.475-1.634-1.044-2.427-1.61-0.979-0.721-1.97-1.458-2.888-2.269-0.322-0.305-0.688-0.506-1.008-0.813l-237.081-229.968c-13.115-12.755-13.468-33.778-0.762-46.963 6.488-6.746 15.131-10.15 23.775-10.15 8.276 0 16.566 3.111 22.981 9.337l105.3 102.158c3.101 3.037 4.461 2.161 3.011-1.962l-93.575-265.355-114.846-111.512c-16.4-15.946-16.796-42.162-0.946-58.614 8.108-8.403 18.858-12.634 29.655-12.634 10.353 0 20.689 3.86 28.707 11.684-0.031 0 121.883 118.364 121.883 118.364 4.643 4.536 8.124 9.949 10.232 16.114l42.054 120.879c2.871 8.249 10.385 10.134 16.781 4.246l106.433-97.788 33.073-140.089c4.461-19.061 21.363-31.891 40.038-31.891 3.193 0 6.398 0.352 9.619 1.104 22.157 5.241 35.869 27.595 30.632 49.861 0 0.031-35.975 152.508-35.975 152.508-1.923 8.051-6.23 15.409-12.278 20.959l-99.85 91.826c-3.222 2.927-4.626 8.661-3.176 12.771l73.601 205.16c1.436 4.123 5.97 6.408 10.14 5.167l216.359-65.669c3.176-0.936 6.398-1.409 9.558-1.409 14.186 0 27.365 9.259 31.642 23.595 5.313 17.558-4.581 36.092-22.051 41.382l-312.33 94.8c-0.428 0.121-0.856 0.137-1.268 0.246zM568.066 814.249c0-39.711 32.020-71.938 71.631-71.938 39.533 0 71.614 32.227 71.614 71.938 0 39.756-32.082 71.971-71.614 71.971-39.61 0-71.631-32.215-71.631-71.971zM893.772 64.61h-790.737c-12.048 0-21.85-9.814-21.85-21.91v-10.979c0-12.112 9.802-21.94 21.85-21.94h813.337c6.029 0 14.369 3.482 18.631 7.76l52.802 53.002c8.522 8.571 8.522 22.446 0 31.003l-7.741 7.741c-8.52 8.557-22.34 8.571-30.876 0l-36.784-36.919c-4.262-4.307-12.614-7.758-18.631-7.758z" />
<glyph unicode="&#xe90e;" glyph-name="category-klatring" d="M134.013 62.53l33.274-17.836 84.031 156.754-33.286 17.836-84.019-156.754zM591.128 679.124l139.293 215.429-31.707 20.492-141.41-218.681c12.528-2.97 24.107-8.866 33.825-17.24zM365.71 767.379c-35.449 1.239-65.178-26.479-66.441-61.915-0.41-12.069 2.572-23.439 8.022-33.274 10.574-19.087 30.515-32.338 53.905-33.157 16.992-0.608 32.653 5.509 44.513 15.919 12.853 11.262 21.262 27.542 21.905 45.974 1.251 35.461-26.468 65.19-61.905 66.454zM325.56 286.58l-2.855 2.724-105.398-29.096 0.315-0.164 103.762-61.319-11.461-111.155c-1.452-13.939 8.561-26.479 22.467-28.137l2.619-0.34c13.777-1.673 26.386 7.895 28.502 21.625l16.163 105.378 6.502 42.346-8.946 8.598-51.671 49.541zM658.996 485.741l-122.894-71.143-15.743-90.218-7.543-43.272-2.619-15.063-14.199-12.282-87.577 150.194c-4.784 8.208-13.541 13.169-22.886 13.169-0.936 0-1.909-0.072-2.877-0.154l-6.468-0.713-80.372-8.679 65.706 107.086 96.721-12.841 104.122 83.223c9.638 7.707 11.954 21.461 5.347 31.906l-8.317 13.099-0.373 0.631c-4.62 7.264-12.456 11.252-20.515 11.252-4.268 0-8.608-1.112-12.526-3.508l-81.822-49.543-124.195 26.409c-2.15 0.328-4.291 0.492-6.418 0.492-15.135 0-29.344-8.233-36.76-21.823-34.9-63.834-122.427-224.764-124.813-236.202-10.363-50.231 44.782-73.703 44.782-73.703l135.936 33.448c2.093 0.516 4.233 0.748 6.314 0.748 8.305 0 16.269-3.881 21.322-10.723l97.915-132.463v-181.617h439.034v862.769l-171.737-76.335-66.546-294.14z" />
<glyph unicode="&#xe90f;" glyph-name="category-padling" d="M487.334 608.961c39.852 0 72.157 32.307 72.157 72.159 0 39.85-32.305 72.157-72.157 72.157s-72.159-32.307-72.159-72.157c0-39.852 32.307-72.159 72.159-72.159zM653.758 287.68l-33.849-139.004c2.908-0.729 5.771-1.473 8.696-2.204 11.114-2.814 22.362-5.546 33.788-8.192 5.71-1.341 11.452-2.699 17.293-3.938l8.878-1.917c3.625-0.815 7.25-1.575 10.889-2.259 29.174-5.368 59.040-5.943 87.366-1.847 28.371 3.996 55.165 12.288 79.591 23.505 24.459 11.207 46.666 25.192 66.697 41.007 20.034 15.829 37.898 33.524 53.703 52.558 8.841 10.715 17.162 21.826 24.588 33.473 5.573 8.749-4.096 18.977-13.578 14.77-11.966-5.308-23.812-10.281-35.609-14.971-21.281-8.37-42.396-15.544-63.16-21.234-20.748-5.685-41.175-9.816-60.873-11.94-11.125-1.18-21.957-1.657-32.504-1.548 30.22 36.483 53.496 74.629 75.295 125.006 4.297 9.927 0.795 21.52-8.298 27.384l-0.848 0.543c-6.947 4.481-15.817 4.712-22.995 0.61-24.326-13.902-87.276-44.939-182.401-57.774l-12.669-52.027zM594.186 436.954l-58.415 40.235c-6.322-27.034-11.031-55.423-10.111-77.738 0.016-0.385 0.045-0.772 0.057-1.159l52.701-26.079-9.288-38.152c-11.487 0.182-23.269 0.659-35.351 1.468-7.612 0.508-15.385 1.194-23.233 1.974-3.82 19.702-6.875 41.12-7.733 61.948-0.133 3.267-0.123 6.687-0.031 10.191 0.655 24.453 6.541 54.073 13.445 81.007 0.623 2.435 1.257 4.85 1.888 7.234l99.725 36.217-23.656-97.145zM23.855 180.278c12.118 4.86 24.066 9.331 35.998 13.281 21.481 7.145 42.777 12.599 63.836 16.726 42.15 8.229 83.591 10.574 124.944 9.368 82.684-2.675 165.325-19.53 250.163-40.2 10.238-2.501 20.507-5.071 30.812-7.68l-30.042-123.357h49.351l150.489 617.996 48.665 41.236c1.475 1.251 2.511 2.941 2.957 4.821l40.542 170.697c0.557 2.341 0.162 4.803-1.102 6.851-1.257 2.046-3.285 3.51-5.622 4.065l-107.512 25.522c-4.872 1.159-9.759-1.853-10.914-6.724l-10.652-44.831-29.874-125.829c-0.451-1.903-0.276-3.895 0.496-5.689l25.895-59.978 0.231-0.059-18.96-77.867-170.224-24.060c-10.222-0.184-20.228-3.324-28.731-9.177-33.909-23.343-104.641-87.298-113.228-217.952-28.361-1.391-56.822-4.794-84.978-10.912-50.328-10.715-99.59-30.278-142.043-58.97-21.193-14.346-40.587-30.945-57.51-49.328-9.527-10.324-18.307-21.201-26.132-32.635-5.884-8.602 3.471-19.198 13.144-15.315z" />
<glyph unicode="&#xe910;" glyph-name="category-sykling" d="M654.788 712.743c-23.177 33.772-72.655 48.378-110.465 32.616l-181.934-75.901c-37.755-15.917-68.297-62.044-68.209-103.031l1.098-326.373c0.057-20.986 17.115-37.974 38.13-37.945 20.984 0.074 37.956 17.117 37.929 38.132l-0.666 272.050c-0.029 5.124 3.926 7.981 8.776 6.394l95.427-31.144c4.878-1.575 7.363-6.756 5.573-11.561l-35.215-93.854c-7.389-19.659 2.568-41.595 22.225-48.984 4.418-1.618 8.976-2.427 13.423-2.41 15.385 0.029 29.817 9.439 35.533 24.678l52.447 139.735c3.607 9.671 3.146 20.566-1.329 29.862-4.473 9.294-12.671 16.468-22.456 19.657l-43.037 14.043c-4.85 1.587-4.964 4.415-0.203 6.334l130.21 52.55c4.733 1.919 10.938 0.043 13.797-4.217l83.274-122.139c6.119-8.978 16.050-13.828 26.153-13.799 6.060 0.029 12.237 1.806 17.635 5.501 14.404 9.783 18.127 29.397 8.313 43.815l-126.427 185.991zM786.902 790.62c-4.649-37.87-39.139-64.829-77.040-60.211-37.898 4.647-64.829 39.111-60.242 77.011 4.676 37.913 39.111 64.874 77.040 60.211 37.9-4.633 64.86-39.113 60.242-77.011zM75.962 242.564c0.145-84.517 68.555-152.881 153.041-153.027 84.488 0.145 152.869 68.51 153.012 153.027-0.143 84.517-68.524 152.869-153.012 153.027-84.486-0.158-152.895-68.51-153.041-153.027zM29.605 242.564c0 110.121 89.25 199.383 199.397 199.412 110.148-0.029 199.369-89.291 199.397-199.412-0.029-110.105-89.25-199.369-199.397-199.412-110.148 0.043-199.397 89.307-199.397 199.412zM642.81 242.564c0.172-84.517 68.524-152.869 153.041-153.012 84.486 0.143 152.867 68.495 153.010 153.012-0.143 84.517-68.524 152.869-153.010 153.043-84.517-0.174-152.869-68.526-153.041-153.043zM596.452 242.564c0 110.133 89.25 199.383 199.399 199.383 110.088 0 199.369-89.25 199.369-199.383 0-110.131-89.281-199.369-199.369-199.383-110.15 0.014-199.399 89.252-199.399 199.383z" />
<glyph unicode="&#xe911;" glyph-name="category-vind-og-vannsport" d="M203.675 546.837c-30.419-5.368-50.733-34.372-45.373-64.791 5.36-30.415 34.38-50.735 64.807-45.371 30.419 5.366 50.733 34.374 45.367 64.801-5.362 30.419-34.374 50.729-64.801 45.361zM570.144 513.338c-0.565-2.154-1.964-3.998-3.883-5.12l-135.502-79.063c-5.913-25.422-10.666-51.587-14.219-78.496l-77.183 30.116c0.817 2.308 1.118 4.811 0.743 7.334l-1.305 12.284 223.879 130.572 6.595-11.262c1.124-1.923 1.44-4.211 0.874-6.365zM250.492 212.687l-1.188 117.295 45.984 23.568 116.697-45.541c-4.065-50.026-3.965-102.558 0.78-157.688v-43.932l-33.554 62.206-128.719 44.091zM791.918 933.721c-5.482 2.021-11.614 1.104-16.273-2.421-138.77-105.015-256.651-240.548-319.005-414.317l-161.016-93.993-114.821-32.926c-12.915-3.703-22.444-14.676-24.304-27.984-8.876-63.527-13.84-129.378-7.905-186.884 1.952-18.944 15.782-34.548 34.347-38.787l145.838-33.266 42.205-58.817h-86.221c-30.353 0-60.133-9.13-85.266-26.147-11.674-7.903-6.081-26.147 8.014-26.147h455.338c47.968 0 94.583 17.34 130.892 48.685l34.161 29.485c10.699 9.241 0.309 26.364-12.829 21.137l-83.54-33.243c-22.854-9.091-47.266-13.771-71.86-13.771h-193.040v58.692c166.58 24.599 293.091 72.724 410.108 159.877 9.961 7.42 15.817 19.126 15.8 31.549-0.221 166.425-39.49 396.335-89.823 626.858-1.245 5.712-5.319 10.392-10.799 12.417z" />
<glyph unicode="&#xe912;" glyph-name="external-link-alt" horiz-adv-x="1152" d="M1152 912v-255.968c0-42.922-51.92-63.96-81.942-33.942l-71.414 71.418-487.046-487.046c-18.746-18.746-49.136-18.746-67.882 0l-45.254 45.254c-18.746 18.746-18.746 49.138 0 67.882l487.050 487.050-71.406 71.41c-30.142 30.142-8.794 81.942 33.942 81.942h255.952c26.51 0 48-21.49 48-48zM814.058 418.412l-32-32c-8.686-8.686-14.058-20.685-14.058-33.939 0-0.001 0-0.002 0-0.003v0-288.47h-640v640h528c13.254 0.001 25.254 5.373 33.94 14.058l32 32c30.238 30.24 8.822 81.942-33.94 81.942h-592c-53.020 0-96-42.98-96-96v-704c0-53.020 42.98-96 96-96h704c53.020 0 96 42.98 96 96v352.472c0 42.764-51.704 64.18-81.942 33.94z" />
<glyph unicode="&#xe913;" glyph-name="gps" d="M682.666 448c0-94.256-76.41-170.666-170.666-170.666s-170.666 76.41-170.666 170.666c0 94.256 76.41 170.666 170.666 170.666s170.666-76.41 170.666-170.666zM1002.666 490.666h-109.184c-19.75 177.674-161.122 319.066-338.816 338.818v109.182c0 11.792-9.54 21.334-21.332 21.334h-42.666c-11.792 0-21.334-9.542-21.334-21.334v-109.182c-177.694-19.752-319.066-161.142-338.816-338.818h-109.184c-11.792 0-21.334-9.542-21.334-21.332v-42.666c0-11.792 9.542-21.334 21.334-21.334h109.184c19.75-177.674 161.122-319.066 338.816-338.818v-109.182c0-11.792 9.542-21.334 21.334-21.334h42.666c11.792 0 21.334 9.542 21.334 21.334v109.182c177.692 19.752 319.066 161.144 338.816 338.818h109.184c11.792 0 21.334 9.542 21.334 21.334v42.666c-0.002 11.79-9.544 21.332-21.336 21.332zM512 149.334c-164.666 0-298.666 133.98-298.666 298.666s134 298.666 298.666 298.666 298.666-133.978 298.666-298.666-134-298.666-298.666-298.666z" />
<glyph unicode="&#xe914;" glyph-name="category-gradering-krevende" d="M338.061 386.691l-22.020 66.060-22.020-66.060h-66.060l54.362-41.806-21.332-68.295 55.138 42.279 55.007-42.279-21.309 68.125 54.295 41.976zM534.702 386.691l-22.020 66.060-22.020-66.060h-66.060l54.362-41.806-21.332-68.295 55.138 42.279 55.007-42.279-21.309 68.125 54.295 41.976zM731.343 386.691l-22.020 66.060-22.020-66.060h-66.060l54.362-41.806-21.332-68.295 55.138 42.279 55.007-42.279-21.309 68.125 54.295 41.976zM870.861 803.447c-95.674 95.672-222.878 148.361-358.179 148.361s-262.502-52.689-358.177-148.361c-95.672-95.672-148.361-222.876-148.361-358.177s52.689-262.504 148.361-358.179c95.672-95.672 222.876-148.361 358.177-148.361s262.502 52.691 358.177 148.361c95.672 95.674 148.361 222.876 148.361 358.179 0.002 135.301-52.689 262.504-148.359 358.177zM512.682 20.65c-234.136 0-424.618 190.484-424.618 424.62s190.482 424.618 424.618 424.618c234.136 0 424.618-190.482 424.618-424.618 0.002-234.136-190.482-424.62-424.618-424.62zM248.609 505.551l-48.474 71.512 44.972 52.713h-19.907l-37.97-46.631c-3.133-4.055-6.451-8.479-9.769-13.271h-0.553v59.902h-16.036v-124.228h16.036v47.368l11.981 13.64 40.733-61.008h18.987zM262.064 505.551h16.218v47.737c0 2.58 0.184 5.161 0.553 7.557 2.212 11.981 10.322 20.644 21.75 20.644 2.212 0 3.871-0.184 5.53-0.369v15.299c-1.475 0.184-2.765 0.369-4.424 0.369-10.875 0-20.826-7.557-24.881-19.538h-0.553l-0.737 17.508h-14.193c0.553-8.294 0.737-17.324 0.737-27.83v-61.377zM357.908 503.708c14.193 0 24.146 3.133 29.86 5.714l-2.949 11.61c-5.898-2.58-13.087-4.608-24.699-4.608-16.218 0-30.042 9.032-30.413 30.781h62.484c0.369 1.843 0.553 4.239 0.553 7.555 0 16.404-7.555 42.025-36.678 42.025-25.987 0-42.023-21.197-42.023-48.105-0.002-26.726 16.587-44.972 43.864-44.972zM354.775 585.173c18.063 0 22.485-16.036 22.303-26.358h-47.184c1.29 11.244 8.294 26.358 24.881 26.358zM451.174 505.551l35.019 89.207h-16.957l-17.324-49.949c-2.949-8.294-5.53-15.667-7.557-23.040h-0.553c-1.843 7.373-4.239 14.746-7.188 23.040l-17.51 49.949h-17.324l33.915-89.207h15.481zM537.065 503.708c14.193 0 24.146 3.133 29.858 5.714l-2.947 11.61c-5.898-2.58-13.087-4.608-24.699-4.608-16.22 0-30.042 9.032-30.413 30.781h62.482c0.369 1.843 0.555 4.239 0.555 7.555 0 16.404-7.557 42.025-36.678 42.025-25.989 0-42.025-21.197-42.025-48.105 0-26.726 16.589-44.972 43.866-44.972zM533.932 585.173c18.063 0 22.487-16.036 22.303-26.358h-47.184c1.29 11.244 8.292 26.358 24.881 26.358zM651.71 556.972v-51.423h16.22v53.266c0 30.595-19.167 37.97-31.519 37.97-14.744 0-25.065-8.294-29.489-16.589h-0.369l-0.922 14.559h-14.377c0.553-7.373 0.735-14.746 0.735-24.146v-65.063h16.22v53.819c0 2.58 0.369 5.53 1.106 7.557 2.949 9.032 11.244 16.589 21.75 16.589 15.297 0.002 20.644-12.163 20.644-26.54zM726.174 503.523c14.561 0 25.252 7.555 30.228 17.508h0.369l0.737-15.483h14.559c-0.553 6.083-0.735 15.114-0.735 23.040v107.823h-16.22v-53.082h-0.369c-3.873 7.004-13.087 13.455-26.911 13.455-21.563 0-40.18-18.063-39.995-47.921 0-27.095 16.773-45.341 38.337-45.341zM730.968 584.067c12.163 0 21.010-8.479 23.407-18.614 0.555-2.212 0.737-4.792 0.737-7.004v-15.483c0-2.58-0.184-4.792-0.737-6.82-2.947-12.165-12.902-19.538-23.775-19.538-17.326 0-26.356 14.93-26.356 33.176-0.002 19.538 9.951 34.284 26.724 34.284zM870.496 554.76c0 16.404-7.557 42.025-36.678 42.025-25.987 0-42.025-21.197-42.025-48.105 0-26.724 16.589-44.972 43.866-44.972 14.193 0 24.146 3.133 29.858 5.714l-2.947 11.61c-5.898-2.58-13.087-4.608-24.699-4.608-16.22 0-30.042 9.032-30.413 30.781h62.482c0.371 1.843 0.555 4.239 0.555 7.555zM807.643 558.815c1.29 11.244 8.294 26.358 24.881 26.358 18.063 0 22.487-16.036 22.303-26.358h-47.184z" />
<glyph unicode="&#xe915;" glyph-name="category-gradering-enkel" d="M534.020 386.691l-22.020 66.060-22.020-66.060h-66.060l54.362-41.806-21.332-68.295 55.138 42.279 55.007-42.279-21.311 68.125 54.297 41.976zM870.861 803.447c-95.674 95.672-222.878 148.361-358.179 148.361s-262.502-52.689-358.177-148.361c-95.672-95.672-148.361-222.876-148.361-358.177s52.689-262.504 148.361-358.179c95.672-95.672 222.876-148.361 358.177-148.361s262.502 52.691 358.177 148.361c95.672 95.674 148.361 222.876 148.361 358.179 0.002 135.301-52.689 262.504-148.359 358.177zM512.682 20.65c-234.136 0-424.618 190.484-424.618 424.62s190.482 424.618 424.618 424.618c234.136 0 424.618-190.482 424.618-424.618 0.002-234.136-190.482-424.62-424.618-424.62zM294.949 577.696h58.798v16.22h-58.798v47.985h62.403v16.445h-82.229v-151.841h85.608v16.447h-65.782zM458.498 569.358v-62.853h19.825v65.106c0 37.396-23.429 46.408-38.523 46.408-18.022 0-30.638-10.138-36.045-20.275h-0.451l-1.126 17.797h-17.572c0.676-9.011 0.901-18.022 0.901-29.512v-79.524h19.825v65.782c0 3.154 0.451 6.758 1.352 9.236 3.604 11.039 13.742 20.275 26.583 20.275 18.7 0.002 25.231-14.868 25.231-32.44zM596.144 615.543h-23.656l-32.213-37.622c-3.154-3.83-6.758-8.561-9.462-12.39h-0.451v100.925h-19.825v-159.951h19.825v41.001l10.136 11.264 37.399-52.265h24.105l-47.985 64.205 42.127 44.833zM659.669 618.021c-31.764 0-51.364-25.907-51.364-58.798 0-32.666 20.275-54.968 53.619-54.968 17.347 0 29.512 3.83 36.495 6.984l-3.607 14.193c-7.209-3.154-15.995-5.632-30.185-5.632-19.827 0-36.723 11.039-37.171 37.622h76.37c0.451 2.253 0.676 5.181 0.676 9.236 0 20.050-9.236 51.364-44.833 51.364zM627.679 571.611c1.579 13.742 10.138 32.215 30.415 32.215 22.077 0 27.484-19.599 27.259-32.215h-57.674zM729.055 666.456h19.825v-159.951h-19.825v159.951z" />
<glyph unicode="&#xe916;" glyph-name="category-gradering-middels" d="M435.7 386.691l-22.020 66.060-22.020-66.060h-66.060l54.362-41.806-21.332-68.295 55.138 42.279 55.007-42.279-21.311 68.125 54.297 41.976zM632.34 386.691l-22.020 66.060-22.020-66.060h-66.060l54.362-41.806-21.332-68.295 55.138 42.279 55.007-42.279-21.311 68.125 54.297 41.976zM870.861 803.447c-95.674 95.672-222.878 148.361-358.179 148.361s-262.502-52.689-358.177-148.361c-95.672-95.672-148.361-222.876-148.361-358.177s52.689-262.504 148.361-358.179c95.672-95.672 222.876-148.361 358.177-148.361s262.502 52.691 358.177 148.361c95.672 95.674 148.361 222.876 148.361 358.179 0.002 135.301-52.689 262.504-148.359 358.177zM512.682 20.65c-234.136 0-424.618 190.484-424.618 424.62s190.482 424.618 424.618 424.618c234.136 0 424.618-190.482 424.618-424.618 0.002-234.136-190.482-424.62-424.618-424.62zM272.646 648.106l-27.034-73.441c-6.758-19.149-12.165-36.045-16.22-51.364h-0.451c-4.055 15.77-9.011 32.666-15.319 51.364l-25.907 73.441h-25.006l-10.588-151.841h18.698l4.055 65.106c1.352 22.753 2.478 48.21 2.929 67.133h0.451c4.28-18.022 10.138-37.622 17.347-59.023l24.781-72.315h14.868l26.808 73.667c7.66 20.726 13.742 40.1 19.149 57.672h0.451c0-18.698 1.352-44.605 2.478-65.556l3.604-66.683h19.374l-9.462 151.841h-25.006zM339.325 605.303h19.825v-109.036h-19.825v109.036zM348.787 623.776h0.225c7.66 0 12.39 5.632 12.39 12.165 0 6.984-4.956 12.39-12.165 12.39-7.434 0-12.39-5.407-12.39-12.39 0-6.533 4.731-12.165 11.94-12.165zM431.012 493.787c17.797 0 30.863 9.236 36.946 21.402h0.451l0.901-18.924h17.797c-0.676 7.434-0.901 18.473-0.901 28.16v131.791h-19.825v-64.881h-0.451c-4.731 8.561-15.995 16.445-32.891 16.445-26.358 0-49.111-22.077-48.886-58.573 0-33.116 20.5-55.421 46.858-55.421zM436.869 592.237c14.868 0 25.682-10.363 28.611-22.753 0.676-2.703 0.901-5.857 0.901-8.561v-18.924c0-3.154-0.225-5.857-0.901-8.335-3.604-14.868-15.77-23.88-29.061-23.88-21.176 0-32.215 18.248-32.215 40.55 0 23.878 12.165 41.902 32.666 41.902zM558.070 493.787c17.795 0 30.861 9.236 36.946 21.402h0.451l0.901-18.924h17.795c-0.676 7.434-0.899 18.473-0.899 28.16v131.791h-19.827v-64.881h-0.451c-4.733 8.561-15.997 16.445-32.893 16.445-26.358 0-49.111-22.077-48.886-58.573 0.004-33.116 20.505-55.421 46.862-55.421zM563.925 592.237c14.871 0 25.682-10.363 28.613-22.753 0.676-2.703 0.899-5.857 0.899-8.561v-18.924c0-3.154-0.223-5.857-0.899-8.335-3.607-14.868-15.77-23.88-29.061-23.88-21.176 0-32.215 18.248-32.215 40.55-0.002 23.878 12.165 41.902 32.664 41.902zM689.629 607.781c-31.764 0-51.364-25.907-51.364-58.798 0-32.666 20.275-54.968 53.619-54.968 17.347 0 29.512 3.83 36.495 6.984l-3.607 14.193c-7.209-3.154-15.995-5.632-30.185-5.632-19.827 0-36.723 11.039-37.171 37.622h76.37c0.451 2.253 0.676 5.181 0.676 9.236 0 20.050-9.236 51.364-44.833 51.364zM657.639 561.371c1.579 13.742 10.138 32.215 30.415 32.215 22.077 0 27.484-19.599 27.259-32.215h-57.674zM759.015 656.216h19.825v-159.951h-19.825v159.951zM847.323 559.571c-14.195 5.632-20.503 9.687-20.503 18.698 0 8.11 6.308 14.868 18.024 14.868 10.136 0 18.022-3.83 22.303-6.308l4.733 14.193c-5.857 3.83-15.546 6.758-26.583 6.758-23.204 0-37.622-14.418-37.622-31.99 0-12.841 9.236-23.654 29.061-30.863 14.418-5.407 20.050-10.363 20.050-19.825 0-9.236-6.76-16.22-20.951-16.22-9.912 0-20.275 4.055-26.358 7.66l-4.731-14.868c7.657-4.506 18.698-7.66 30.638-7.66 25.457 0 40.55 13.517 40.55 32.891-0.002 16.218-9.914 25.68-28.613 32.666z" />
<glyph unicode="&#xe917;" glyph-name="category-gradering-ekspert" d="M239.059 386.691l-22.020 66.060-22.020-66.060h-66.060l54.362-41.806-21.332-68.295 55.138 42.279 55.007-42.279-21.311 68.125 54.297 41.976zM435.7 386.691l-22.020 66.060-22.020-66.060h-66.060l54.362-41.806-21.332-68.295 55.138 42.279 55.007-42.279-21.311 68.125 54.297 41.976zM632.34 386.691l-22.020 66.060-22.020-66.060h-66.060l54.362-41.806-21.332-68.295 55.138 42.279 55.007-42.279-21.311 68.125 54.297 41.976zM895.042 386.691h-66.060l-22.020 66.060-22.020-66.060h-66.060l54.362-41.806-21.332-68.295 55.138 42.279 55.007-42.279-21.311 68.125zM870.861 803.447c-95.674 95.672-222.878 148.361-358.179 148.361s-262.502-52.689-358.177-148.361c-95.672-95.672-148.361-222.876-148.361-358.177s52.689-262.504 148.361-358.179c95.672-95.672 222.876-148.361 358.177-148.361s262.502 52.691 358.177 148.361c95.672 95.674 148.361 222.876 148.361 358.179 0.002 135.301-52.689 262.504-148.359 358.177zM512.682 20.65c-234.136 0-424.618 190.484-424.618 424.62s190.482 424.618 424.618 424.618c234.136 0 424.618-190.482 424.618-424.618 0.002-234.136-190.482-424.62-424.618-424.62zM264.313 539.337h-65.782v54.743h58.798v16.22h-58.798v47.985h62.403v16.445h-82.227v-151.841h85.606zM380.555 522.889l-47.985 64.205 42.127 44.831h-23.654l-32.215-37.622c-3.154-3.83-6.758-8.561-9.462-12.39h-0.451v100.925h-19.825v-159.951h19.825v41.001l10.138 11.264 37.396-52.265h24.105zM418.4 535.507c-9.912 0-20.275 4.055-26.358 7.66l-4.731-14.868c7.66-4.506 18.698-7.66 30.638-7.66 25.457 0 40.55 13.517 40.55 32.891 0 16.22-9.912 25.682-28.611 32.666-14.193 5.632-20.5 9.687-20.5 18.698 0 8.11 6.308 14.868 18.022 14.868 10.138 0 18.022-3.83 22.303-6.308l4.731 14.193c-5.857 3.83-15.544 6.758-26.583 6.758-23.204 0-37.622-14.418-37.622-31.99 0-12.841 9.236-23.654 29.061-30.863 14.418-5.407 20.050-10.363 20.050-19.825 0-9.239-6.758-16.22-20.951-16.22zM587.36 578.986c0 33.116-19.827 55.419-46.408 55.419-17.572 0-30.638-7.66-38.523-21.176h-0.451l-1.126 18.698h-17.797c0.676-10.363 0.901-21.627 0.901-35.594v-118.049h19.825v59.249h0.451c6.533-10.813 18.924-17.121 33.567-17.121 25.455 0 49.562 19.374 49.562 58.575zM504.68 559.159c-0.676 2.478-0.901 5.407-0.901 8.11v18.924c0 2.478 0.676 5.407 1.126 7.885 3.83 15.094 16.671 24.556 30.188 24.556 20.951 0 32.215-18.698 32.215-40.55 0-25.006-12.165-42.127-33.116-42.127-13.965 0-26.13 9.462-29.512 23.204zM655.614 634.405c-31.764 0-51.364-25.907-51.364-58.798 0-32.666 20.275-54.968 53.619-54.968 17.347 0 29.512 3.83 36.495 6.984l-3.607 14.193c-7.209-3.154-15.995-5.632-30.185-5.632-19.827 0-36.723 11.039-37.171 37.622h76.37c0.451 2.253 0.676 5.181 0.676 9.236 0 20.050-9.236 51.364-44.833 51.364zM623.624 587.995c1.579 13.742 10.138 32.215 30.415 32.215 22.077 0 27.484-19.599 27.259-32.215h-57.674zM725 522.889h19.825v58.348c0 3.154 0.225 6.308 0.676 9.236 2.703 14.643 12.616 25.231 26.583 25.231 2.701 0 4.731-0.225 6.758-0.451v18.698c-1.802 0.225-3.379 0.451-5.407 0.451-13.292 0-25.459-9.236-30.415-23.88h-0.676l-0.899 21.402h-17.349c0.676-10.138 0.901-21.176 0.901-34.017v-75.018zM808.577 557.582c0-12.841 2.253-22.528 7.657-28.611 4.733-5.181 12.165-8.335 21.402-8.335 7.66 0 13.742 1.352 17.572 2.703l-0.899 15.094c-2.931-0.901-6.085-1.352-11.489-1.352-11.039 0-14.868 7.66-14.868 21.176v58.573h28.383v15.094h-28.383v26.132l-19.374-6.083v-20.050h-16.896v-15.094h16.896v-59.249z" />
<glyph unicode="&#xe918;" glyph-name="menu-2" horiz-adv-x="1192" d="M843.357 605.802c-98.014 0-177.432-84.823-177.432-189.362 0-54.199 12.988-109.171 34.040-164.286 0.21-0.541 0.383-1.066 0.593-1.606 7.673-19.956 16.442-39.927 26.022-59.897 32.171-67.082 73.825-134.075 116.776-199.888 42.645 65.205 84.418 132.393 116.739 199.888 9.542 19.941 18.311 39.912 25.977 59.867 0.21 0.541 0.391 1.096 0.601 1.637 21.052 55.183 34.086 110.237 34.086 164.286 0 104.538-79.447 189.362-177.402 189.362zM843.357 509.169c45.67 0 82.789-37.013 82.789-82.759 0-45.775-37.119-82.827-82.789-82.827-45.745 0-82.804 37.051-82.804 82.827 0 45.76 37.058 82.759 82.804 82.759zM1176.199-3.782l-151.157 347.661c-5.472-36.512-16.781-72.834-32.324-108.858l94.282-216.84h-220.011c-7.81-12.245-15.706-24.433-23.632-36.552-7.927 12.146-15.809 24.332-23.596 36.552h-717.086l106.482 244.911c-0.277 1.014-0.434 2.058-0.434 3.106 0 40.301 11.010 84.484 28.585 122.596 8.974 19.427 18.653 35.443 30.37 49.423h-38.093c-14.535 0-27.697-8.632-33.493-21.963l-182.624-420.036c-4.913-11.289-3.799-24.29 2.951-34.59 6.751-10.29 18.236-16.497 30.542-16.497h1095.745c12.315 0 23.791 6.207 30.541 16.497 6.751 10.299 7.865 23.301 2.952 34.59zM461.724 604.127c17.848-65.923 69.615-115.433 132.324-117.279 62.709 1.846 114.202 51.357 132.050 117.279 22.84 22.225 45.818 60.179 45.818 100.047 0 12.583-0.479 22.43-4.035 31.457-1.778 4.445-4.582 8.89-8.958 12.036-0.957 0.616-2.12 1.026-3.146 1.505 0 0 3.556 31.662-0.889 60.52-4.445 28.79-11.967 48.142-27.491 60.452-5.402 35.628-21.951 51.835-51.425 64.897-19.832 8.685-48.348 16.959-81.925 17.37-78.369-1.026-120.767-36.107-141.077-71.325s-19.968-70.505-19.968-70.846c0-0.273-0.957-61.068-0.957-61.068-1.026-0.479-2.12-0.889-3.077-1.505-4.376-3.146-7.249-7.591-9.027-12.036-3.556-9.027-3.966-18.874-3.966-31.457 0-39.868 22.909-77.821 45.749-100.046zM678.108 248.017c-0.203 0.524-0.371 1.033-0.575 1.557-20.397 53.401-32.982 106.664-32.982 159.177 0 26.961 5.453 52.568 15.246 75.632-16.364-8.907-34.312-14.846-53.235-16.887-55.049-5.744-107.637 26.944-137.521 71.462-9.163-3.487-119.605-46.228-150.24-66.88-32.004-21.473-51.63-45.681-68.658-82.54-17.028-36.927-27.696-79.736-27.696-118.784 0-4.65 3.009-9.232 7.249-11.147 100.32-44.86 284.411-50.126 364.216-50.126 24.841 0 59.798 0.517 99.179 2.573-5.357 11.992-10.375 23.981-14.982 35.964z" />
<glyph unicode="&#xe919;" glyph-name="menu-1" horiz-adv-x="1311" d="M655.378 960c-130.55 0-236.33-112.976-236.33-252.218 0-72.191 17.3-145.412 45.34-218.821 0.28-0.72 0.511-1.42 0.79-2.14 10.22-26.58 21.9-53.18 34.66-79.78 42.85-89.35 98.33-178.58 155.54-266.24 56.801 86.85 112.439 176.34 155.491 266.24 12.712 26.56 24.393 53.16 34.597 79.74 0.285 0.72 0.527 1.46 0.805 2.18 28.036 73.5 45.4 146.83 45.4 218.821 0 139.242-105.823 252.218-236.292 252.218zM655.378 831.29c60.83 0 110.274-49.298 110.274-110.234 0-60.967-49.444-110.317-110.274-110.317-60.929 0-110.29 49.35-110.29 110.317 0 60.95 49.36 110.234 110.29 110.234zM1307.323-6.71l-204.803 471.042c-6.497 14.949-21.245 24.63-37.561 24.63h-131.539c-3.586-10.42-7.39-20.92-11.483-31.56-6.465-16.841-13.469-33.63-20.867-50.361h137.031l169.188-389.121h-1103.851l169.181 389.121h137.011c-7.42 16.76-14.45 33.551-20.91 50.361-4.090 10.639-7.89 21.14-11.49 31.56h-131.47c-16.3 0-31.060-9.68-37.56-24.63l-204.801-471.042c-5.51-12.66-4.26-27.24 3.31-38.79 7.57-11.54 20.45-18.5 34.25-18.5h1228.803c13.807 0 26.681 6.96 34.248 18.5 7.575 11.55 8.821 26.13 3.313 38.79z" />
<glyph unicode="&#xe91a;" glyph-name="instagram" d="M741.403 960h-458.823c-155.814 0-282.579-126.771-282.579-282.585v-458.823c0-155.82 126.765-282.585 282.579-282.585h458.823c155.826 0 282.591 126.771 282.591 282.585v458.823c0.006 155.814-126.765 282.585-282.591 282.585zM933.146 218.591c0-105.723-86.014-191.732-191.738-191.732h-458.829c-105.717-0.006-191.726 86.008-191.726 191.732v458.823c0 105.717 86.008 191.732 191.726 191.732h458.823c105.723 0 191.738-86.014 191.738-191.732v-458.823zM511.997 711.848c-145.493 0-263.857-118.364-263.857-263.857 0-145.487 118.364-263.845 263.857-263.845s263.857 118.358 263.857 263.845c0 145.493-118.364 263.857-263.857 263.857zM511.997 275.005c-95.39 0-173.004 77.601-173.004 172.992 0 95.396 77.607 173.004 173.004 173.004s173.004-77.607 173.004-173.004c0-95.39-77.613-172.992-173.004-172.992zM786.92 788.886c-17.504 0-34.7-7.087-47.062-19.503-12.423-12.356-19.564-29.558-19.564-47.123 0-17.511 7.147-34.706 19.564-47.123 12.356-12.356 29.558-19.503 47.062-19.503 17.565 0 34.706 7.147 47.123 19.503 12.417 12.417 19.503 29.618 19.503 47.123 0 17.565-7.087 34.767-19.503 47.123-12.356 12.417-29.558 19.503-47.123 19.503z" />
<glyph unicode="&#xe91b;" glyph-name="google-plus" d="M359.274 380.414h159.984c-28.082-79.396-104.139-136.32-193.182-135.663-108.041 0.798-197.376 87.228-201.571 195.191-4.496 115.728 88.35 211.311 203.097 211.311 52.466 0 100.345-19.991 136.441-52.748 8.55-7.761 21.564-7.81 29.973 0.105l58.761 55.304c9.189 8.65 9.222 23.258 0.060 31.937-57.244 54.232-134.034 88.035-218.714 89.688-180.614 3.526-332.856-144.559-334.114-325.205-1.269-182.002 145.886-329.938 327.593-329.938 174.744 0 317.495 136.823 327.057 309.176 0.255 2.161 0.422 75.19 0.422 75.19h-295.808c-12.125 0-21.953-9.828-21.953-21.953v-80.444c0-12.125 9.83-21.953 21.953-21.953zM926.164 497.459v78.598c0 10.626-8.612 19.238-19.238 19.238h-66.153c-10.626 0-19.238-8.612-19.238-19.238v-78.598h-78.598c-10.626 0-19.238-8.612-19.238-19.238v-66.153c0-10.626 8.612-19.238 19.238-19.238h78.598v-78.598c0-10.626 8.612-19.238 19.238-19.238h66.153c10.626 0 19.238 8.612 19.238 19.238v78.598h78.598c10.626 0 19.238 8.612 19.238 19.238v66.153c0 10.626-8.612 19.238-19.238 19.238h-78.598z" />
<glyph unicode="&#xe91c;" glyph-name="go" horiz-adv-x="1165" d="M629.911 615.211v312.734c0 9.714 5.923 18.514 15.001 22.17 9.077 3.798 19.515 1.684 26.458-5.194l485.456-480.907c9.466-9.378 9.466-24.623 0-34.001l-485.456-480.905c-4.66-4.569-10.875-7.022-17.185-7.022-3.106 0-6.262 0.577-9.273 1.828-9.077 3.704-15.001 12.504-15.001 22.218v311.724c-105.15-5.194-515.409-40.204-583.52-270.412-3.448-11.445-14.903-18.852-26.749-17.024-11.942 1.731-20.826 11.83-20.826 23.805 0.002 551.645 517.4 597.573 631.095 600.986zM653.989 326.812c7.38-0.963 12.67-2.453 17.283-6.972s7.184-10.676 7.184-17.071v-278.589l426.862 422.86-426.862 422.858v-278.589c0-6.54-2.669-12.743-7.427-17.313-4.708-4.52-10.777-7.502-17.67-6.733l-7.621 0.097c-92.527 0-526.769-22.842-590.51-444.309 165.2 197.222 578.664 203.57 598.761 203.761z" />
<glyph unicode="&#xe91d;" glyph-name="facebook" d="M767.965 959.787l-132.79 0.213c-149.185 0-245.595-98.913-245.595-252.008v-116.192h-133.514c-11.537 0-20.88-9.353-20.88-20.891v-168.35c0-11.537 9.353-20.88 20.88-20.88h133.514v-424.8c0-11.537 9.343-20.88 20.88-20.88h174.198c11.537 0 20.88 9.353 20.88 20.88v424.8h156.109c11.537 0 20.88 9.343 20.88 20.88l0.064 168.35c0 5.54-2.205 10.845-6.115 14.765s-9.236 6.125-14.776 6.125h-156.163v98.498c0 47.342 11.282 71.375 72.952 71.375l89.453 0.032c11.527 0 20.869 9.353 20.869 20.88v156.322c0 11.516-9.332 20.859-20.848 20.88z" />
<glyph unicode="&#xe91e;" glyph-name="email" d="M1023.982 698.597c0 21.86-8.634 41.637-22.409 56.716-0.229 0.299-0.281 0.653-0.529 0.954-0.229 0.264-0.547 0.371-0.795 0.617-15.663 16.387-37.735 26.751-62.314 26.751h-851.872c-24.579 0-46.651-10.364-62.349-26.751-0.229-0.246-0.566-0.353-0.795-0.636-0.248-0.283-0.299-0.653-0.529-0.954-13.755-15.079-22.39-34.837-22.39-56.697v-501.192c0-22.39 8.988-42.642 23.361-57.847 0.283-0.316 0.371-0.706 0.689-1.007 0.105-0.105 0.229-0.122 0.336-0.229 15.663-15.964 37.469-25.958 61.678-25.958h851.872c24.209 0 46.034 10.011 61.678 25.973 0.105 0.090 0.229 0.124 0.335 0.212 0.301 0.283 0.388 0.671 0.671 0.972 14.391 15.202 23.379 35.473 23.379 57.882v501.194h-0.018zM688.823 474.487l295.094 244.681c2.895-6.286 4.608-13.225 4.608-20.57v-501.192c0-6.641-1.377-12.944-3.761-18.753l-295.941 295.834zM937.935 748.586c7.434 0 14.444-1.695 20.818-4.556l-446.754-370.404-446.754 370.404c6.375 2.859 13.385 4.556 20.818 4.556h851.872zM39.236 178.669c-2.384 5.791-3.761 12.112-3.761 18.753v501.175c0 7.345 1.713 14.286 4.608 20.57l295.094-244.681-295.941-295.817zM86.063 147.432c-8.192 0-15.822 2.12-22.671 5.543l299.048 298.926 138.171-114.564c3.284-2.737 7.345-4.114 11.389-4.114s8.105 1.377 11.389 4.114l138.171 114.564 299.048-298.926c-6.852-3.425-14.478-5.543-22.673-5.543h-851.871z" />
<glyph unicode="&#xe91f;" glyph-name="clock" d="M512 960c-282.317 0-512-229.683-512-512s229.683-512 512-512 512 229.683 512 512-229.683 512-512 512zM512-29.867c-263.492 0-477.867 214.374-477.867 477.867s214.374 477.867 477.867 477.867 477.867-214.374 477.867-477.867-214.374-477.867-477.867-477.867zM512 857.6c-9.421 0-17.067-7.629-17.067-17.067v-392.533h-256c-9.421 0-17.067-7.629-17.067-17.067s7.646-17.067 17.067-17.067h273.067c9.421 0 17.067 7.629 17.067 17.067v409.6c0 9.438-7.646 17.067-17.067 17.067z" />
<glyph unicode="&#xe920;" glyph-name="check-mark" d="M979.285 893.348c-46.208 24.881-97.748-23.104-127.961-51.54-69.309-67.535-127.958-145.733-193.718-216.822-72.867-78.198-140.401-156.397-215.045-232.82-42.654-42.654-88.862-88.862-117.297-142.179-63.98 62.206-119.075 129.741-190.164 184.832-51.54 39.099-136.847 67.535-135.070-26.658 3.554-122.632 111.966-254.147 191.941-337.674 33.767-35.545 78.198-72.867 129.738-74.644 62.203-3.554 126.184 71.089 163.505 111.966 65.761 71.089 119.078 151.068 179.501 223.931 78.198 95.971 158.174 190.167 234.595 287.915 47.985 60.426 199.050 209.716 79.975 273.694zM78.224 415.269c-1.777 0-3.554 0-7.109-1.774-7.109 1.774-12.441 3.554-19.55 7.109v0c5.332 3.554 14.218 1.777 26.658-5.335z" />
<glyph unicode="&#xe921;" glyph-name="back" horiz-adv-x="1155" d="M530.481 618.52v312.912c0 9.719-5.871 18.525-14.868 22.183-8.997 3.801-19.343 1.685-26.225-5.197l-481.179-481.181c-9.383-9.383-9.383-24.637 0-34.020l481.179-481.179c4.619-4.572 10.779-7.026 17.034-7.026 3.079 0 6.207 0.577 9.191 1.829 8.997 3.706 14.868 12.511 14.868 22.23v311.901c104.223-5.197 510.868-40.227 578.378-270.566 3.417-11.451 14.771-18.863 26.514-17.034 11.837 1.732 20.643 11.837 20.643 23.818-0.002 551.959-512.842 597.914-625.535 601.328zM506.615 329.957c-7.315-0.963-12.559-2.454-17.131-6.976s-7.121-10.682-7.121-17.081v-278.747l-423.101 423.101 423.101 423.099v-278.747c0-6.543 2.646-12.751 7.362-17.322 4.667-4.522 10.682-7.506 17.514-6.737l7.554 0.097c91.712 0 522.128-22.855 585.307-444.562-163.745 197.334-573.565 203.686-593.486 203.877z" />
<glyph unicode="&#xe922;" glyph-name="add-new" horiz-adv-x="868" d="M417.152 199.196c0 131.352 106.862 238.205 238.205 238.205 32.753 0 63.981-6.647 92.412-18.659 20.259 47.668 30.767 99.097 30.767 151.99 0 214.637-174.631 389.268-389.268 389.268s-389.268-174.631-389.268-389.268c0-84.94 26.83-165.649 77.654-233.362l287.619-387.374c0.719-0.939 1.816-1.298 2.615-2.136 14.373-15.391 35.114-11.519 45.355 2.136 19.059 25.431 41.777 55.946 66.164 88.798-38.651 42.359-62.255 98.673-62.255 160.401zM389.268 483.494c-80.96 0-147.125 66.164-147.125 147.125s66.164 147.126 147.125 147.126 147.125-66.164 147.125-147.125-66.164-147.126-147.125-147.126zM657.306 411.438c-115.452 0-209.385-93.926-209.385-209.385s93.933-209.385 209.385-209.385 209.385 93.926 209.385 209.385-93.933 209.385-209.385 209.385zM757.971 185.946h-84.56v-88.586c0-8.89-7.216-16.106-16.106-16.106s-16.106 7.216-16.106 16.106v88.586h-84.559c-8.89 0-16.106 7.216-16.106 16.106s7.216 16.106 16.106 16.106h84.559v80.533c0 8.89 7.216 16.106 16.106 16.106s16.106-7.216 16.106-16.106v-80.533h84.56c8.89 0 16.106-7.216 16.106-16.106s-7.215-16.106-16.106-16.106z" />
<glyph unicode="&#xe923;" glyph-name="cross" d="M659.288 431.635c-9.352 9.352-9.352 23.379 0 32.731l350.685 350.685c9.352 9.352 14.027 23.379 14.027 32.731s-4.676 23.379-14.027 32.731l-65.461 65.461c-9.352 9.352-23.379 14.027-32.731 14.027-14.027 0-23.379-4.676-32.731-14.027l-350.685-350.685c-9.352-9.352-23.379-9.352-32.731 0l-350.685 350.685c-9.352 9.352-23.379 14.027-32.731 14.027s-23.379-4.676-32.731-14.027l-65.461-65.461c-9.352-9.352-14.027-23.379-14.027-32.731s4.676-23.379 14.027-32.731l350.685-350.685c9.352-9.352 9.352-23.379 0-32.731l-350.685-350.685c-9.352-9.352-14.027-23.379-14.027-32.731s4.676-23.379 14.027-32.731l65.461-65.461c9.352-9.352 23.379-14.027 32.731-14.027s23.379 4.676 32.731 14.027l350.685 350.685c9.352 9.352 23.379 9.352 32.731 0l350.685-350.685c9.352-9.352 23.379-14.027 32.731-14.027s23.379 4.676 32.731 14.027l65.461 65.461c9.352 9.352 14.027 23.379 14.027 32.731s-4.676 23.379-14.027 32.731l-350.685 350.685z" />
<glyph unicode="&#xe924;" glyph-name="user, profile, avatar, head" d="M0-64v96c0 143.488 180.768 197.728 419.168 219.584-52.352 32.448-93.44 123.648-114.848 196.48-0.096 0-0.192-0.064-0.32-0.064-2.176 0-48 57.312-48 128 0 62.016-4.416 113.728 32.224 125.44-0.032 0.864-0.224 1.696-0.224 2.56 0 78.624 40.672 147.52 101.984 187.488 15.84 39.52 64.128 68.512 122.016 68.512s106.176-28.992 122.016-68.512c61.312-39.968 101.984-108.864 101.984-187.488 0-0.864-0.192-1.696-0.224-2.56 36.64-11.712 32.224-63.424 32.224-125.44 0-70.688-50.816-128-48-128-0.128 0-0.224 0.064-0.32 0.064-21.408-72.8-62.496-164.032-114.848-196.48 238.4-21.856 419.168-74.080 419.168-219.584v-96h-1024z" />
</font>
</defs>
</svg>
